<svg xmlns="http://www.w3.org/2000/svg" viewBox="0 0 512 512"><path d="M482 333.763V198.401c-5.7 5.099-12.599 9.6-19.799 13.2L452 216.7v117.063c-17.422 6.213-30 22.707-30 42.237 0 24.814 20.186 45 45 45s45-20.186 45-45c0-19.53-12.578-36.024-30-42.237zM241 181c-33.647 0-60-19.761-60-45s26.353-45 60-45c26.561 0 48.347 12.398 56.442 30h182.066c-4.596-13.949-15.41-26.157-30.54-33.618L302.479 13.689c-37.061-18.252-85.898-18.252-122.959 0L33.032 87.382C12.656 97.431 0 116.049 0 136s12.656 38.569 33.032 48.618L179.52 257.04C198.051 266.166 219.32 271 241 271s42.949-4.834 61.479-13.96l146.488-72.422c15.13-7.462 25.944-19.669 30.54-33.618H297.442c-8.095 17.602-29.881 30-56.442 30z"/><path d="M241 121c-18.311 0-30 8.877-30 15s11.689 15 30 15 30-8.877 30-15-11.689-15-30-15zm74.854 162.891C293.09 295.111 267.25 301 241 301s-52.09-5.889-74.736-17.051L91 246.484V316c0 42.759 64.482 75 150 75s151-32.241 151-75v-69.512l-76.146 37.403zm196.111 151.756C499.399 445.148 483.932 451 467 451s-32.399-5.852-44.965-15.353c-.002.12-.035.232-.035.353v61c0 8.291 6.709 15 15 15h60c8.291 0 15-6.709 15-15v-61c0-.121-.033-.233-.035-.353z"/></svg>