<svg xmlns="http://www.w3.org/2000/svg" viewBox="0 0 512 512"><circle cx="165" cy="287" r="45"/><circle cx="346" cy="287" r="45"/><circle cx="75" cy="377" r="45"/><path d="M90 0C65.147 0 45 21.147 45 46s20.147 45 45 45 45-20.147 45-45S114.853 0 90 0zm29.562 436.978C107.067 446.291 91.745 452 75 452s-32.067-5.709-44.562-15.022C12.063 450.649 0 472.338 0 497c0 8.284 6.716 15 15 15h120c8.284 0 15-6.716 15-15 0-24.662-12.063-46.351-30.438-60.022zM255 332c-24.853 0-45 20.147-45 45s20.147 45 45 45 46-20.147 46-45-21.147-45-46-45zm45.562 104.978C288.067 446.291 271.745 452 255 452s-32.067-5.709-44.562-15.022C192.063 450.649 180 472.338 180 497c0 8.284 6.716 15 15 15h121c8.284 0 15-6.716 15-15 0-24.662-12.063-46.351-30.438-60.022zM436 332c-24.853 0-45 20.147-45 45s20.147 45 45 45 46-20.147 46-45-21.147-45-46-45zm45.562 104.978C469.067 446.291 452.745 452 436 452s-32.067-5.709-44.562-15.022C373.063 450.649 361 472.338 361 497c0 8.284 6.716 15 15 15h121c8.284 0 15-6.716 15-15 0-24.662-12.063-46.351-30.438-60.022zM376.383 422C366.865 409.426 361 393.948 361 377c0-5.982.886-11.728 2.216-17.309C357.671 361.048 351.971 362 346 362s-11.671-.952-17.216-2.309C330.114 365.272 331 371.018 331 377c0 16.948-5.865 32.426-15.383 45h60.766zm-181 0C185.865 409.426 180 393.948 180 377c0-5.982.886-11.728 2.216-17.309C176.671 361.048 170.971 362 165 362s-11.671-.952-17.216-2.309C149.114 365.272 150 371.018 150 377c0 16.948-5.865 32.426-15.383 45h60.766zM467 0H255c-24.853 0-45 21.147-45 46v151c0 24.853 20.147 45 45 45h31.383c13.705-18.104 35.213-30 59.617-30s45.912 11.896 59.617 30H467c24.853 0 45-20.147 45-45V46c0-24.853-20.147-46-45-46zM136.56 104.33C123.726 114.599 107.675 121 90 121s-33.726-6.401-46.56-16.67C17.494 120.123 0 148.405 0 181v196c0-41.353 33.647-75 75-75 5.933 0 11.635.864 17.173 2.173C90.864 298.635 90 292.933 90 287c0-41.353 33.647-75 75-75 5.136 0 10.151.529 15 1.518V181c0-32.595-17.494-60.877-43.44-76.67z"/></svg>