<svg xmlns="http://www.w3.org/2000/svg" viewBox="0 0 512.001 512.001"><path d="M298.509 234.704l-21.563-3.149a14.972 14.972 0 01-11.294-8.203L256 203.811l-9.653 19.541a14.972 14.972 0 01-11.294 8.203l-21.563 3.149 15.615 15.205a14.992 14.992 0 014.307 13.271l-3.677 21.489 19.292-10.137a14.85 14.85 0 016.973-1.729c2.403 0 4.79.571 6.973 1.729l19.292 10.137-3.677-21.489a14.994 14.994 0 014.307-13.271l15.614-15.205z"/><path d="M256 106.003c-74.442 0-134.999 60.557-134.999 134.999S181.557 376.001 256 376.001s134.999-60.557 134.999-134.999S330.442 106.003 256 106.003zm85.208 128.963l-31.729 30.923 7.485 43.652a14.99 14.99 0 01-5.962 14.663 14.955 14.955 0 01-15.791 1.143l-39.214-20.596-39.214 20.596a14.918 14.918 0 01-15.791-1.143 14.99 14.99 0 01-5.962-14.663l7.485-43.652-31.729-30.923a15.007 15.007 0 01-3.791-15.366 14.985 14.985 0 0112.114-10.21l43.828-6.387 19.614-39.712c5.039-10.254 21.855-10.254 26.895 0l19.614 39.712 43.828 6.387a14.985 14.985 0 0112.114 10.21 15.002 15.002 0 01-3.794 15.366z"/><path d="M474.451 194.382c-7.676-7.676-10.693-18.955-7.881-29.443 8.613-32.212-10.576-65.435-42.773-74.062-10.474-2.813-18.735-11.074-21.548-21.548-4.175-15.601-14.18-29.638-28.169-37.709-13.975-8.086-30.264-10.166-45.894-6.05-10.459 2.813-21.738-.205-29.429-7.881-23.584-23.584-61.933-23.584-85.517 0-7.676 7.676-18.926 10.635-29.443 7.881-32.183-8.628-65.419 11.576-74.061 43.773-2.813 10.476-11.075 18.737-21.548 21.55-15.601 4.175-28.638 14.18-36.709 28.169-8.086 13.975-10.225 30.278-6.05 45.894 2.813 10.474-.205 21.753-7.881 29.429-23.584 23.584-23.584 61.933 0 85.517 7.676 7.674 10.693 18.954 7.881 29.442-8.613 32.212 10.576 65.434 42.773 74.062 10.474 2.813 18.735 11.074 21.548 21.548 4.175 15.601 14.18 28.638 28.169 36.709 13.96 8.057 30.22 10.195 45.879 6.035 10.488-2.798 21.753.22 29.443 7.896 11.792 11.792 27.275 17.681 42.759 17.681s30.967-5.889 42.759-17.681c7.676-7.69 18.882-10.693 29.443-7.896 15.63 4.16 31.934 2.021 45.879-6.035 13.989-8.086 23.994-21.123 28.169-36.709 2.813-10.488 11.089-18.75 21.563-21.563 15.601-4.175 28.638-14.18 36.709-28.169 8.086-13.975 10.225-30.278 6.05-45.894-2.813-10.474.205-21.753 7.881-29.429 23.582-23.583 23.582-61.933-.002-85.517zM256 406.001c-90.98 0-164.999-74.018-164.999-164.999S165.02 76.003 256 76.003s164.999 74.018 164.999 164.999S346.98 406.001 256 406.001zm251.604-5.463l-25.357-24.351c-12.18 17.668-29.747 30.596-50.702 36.186-6.563 23.657-21.533 43.154-42.451 55.254-6.132 3.543-12.735 6.063-19.462 8.077l30.903 31.903a15.024 15.024 0 0014.048 3.999 14.982 14.982 0 0010.781-9.858l18.853-57.528 57.528-18.853a15.008 15.008 0 009.858-10.781 15.015 15.015 0 00-3.999-14.048zM122.921 467.64c-20.918-12.056-35.903-31.567-42.158-54.946-21.727-5.933-39.146-19.404-50.967-36.552l-25.4 24.394a15.015 15.015 0 00-3.999 14.048 15.008 15.008 0 009.858 10.781l57.528 18.853 18.853 57.528a14.982 14.982 0 0010.781 9.858 15.024 15.024 0 0014.048-3.999L142.37 475.7c-6.718-2.01-13.315-4.526-19.449-8.06z"/></svg>