<svg xmlns="http://www.w3.org/2000/svg" viewBox="0 0 512 512"><path d="M346 271c0-8.291 6.709-15 15-15h13.484c-6.848-54.066-49.418-96.636-103.484-103.484V166c0 8.291-6.709 15-15 15s-15-6.709-15-15v-13.484c-54.066 6.848-96.636 49.418-103.484 103.484H151c8.291 0 15 6.709 15 15s-6.709 15-15 15h-13.484c6.848 54.066 49.418 96.636 103.484 103.484V376c0-8.291 6.709-15 15-15s15 6.709 15 15v13.484c54.066-6.848 96.636-49.418 103.484-103.484H361c-8.291 0-15-6.709-15-15zm-46.582-38.291L271 289.545V316c0 8.291-6.709 15-15 15s-15-6.709-15-15v-30c0-2.329.542-4.629 1.582-6.709l30-60c3.735-7.397 12.715-10.415 20.127-6.709 7.412 3.706 10.415 12.715 6.709 20.127z"/><path d="M271 61.76V30h15c8.291 0 15-6.709 15-15s-6.709-15-15-15h-60c-8.291 0-15 6.709-15 15s6.709 15 15 15h15v31.76C132.208 69.505 46 160.267 46 271c0 115.796 94.204 211 210 211s210-95.204 210-211c0-110.733-86.208-201.495-195-209.24zM256 421c-82.705 0-150-67.295-150-150s67.295-150 150-150 150 67.295 150 150-67.295 150-150 150z"/><path d="M391 31c-18.556 0-35.966 5.695-50.566 15.63 56.526 21.35 102.856 63.329 129.827 116.847C477.136 150.637 481 136.163 481 121c0-49.629-40.371-90-90-90zm-270 0c-49.629 0-90 40.371-90 90 0 15.163 3.864 29.637 10.739 42.477C68.71 109.959 115.04 67.98 171.566 46.63 156.965 36.695 139.556 31 121 31zm299.707 463.056l-8.119-40.58c-16.65 14.388-35.288 26.444-55.446 35.865l42.149 21.077a15.026 15.026 0 0015.82-1.494 15.02 15.02 0 005.596-14.868zm-321.295-40.58l-8.119 40.58a15.02 15.02 0 005.596 14.868 15.026 15.026 0 0015.82 1.494l42.149-21.077c-20.158-9.421-38.796-21.476-55.446-35.865z"/></svg>