<svg xmlns="http://www.w3.org/2000/svg" height="120" width="120"><path fill="#222" fill-rule="evenodd" d="M57.84 2.755c-7.294 3.215-5.947 14.053 1.95 15.66 3.718.735 8.503-2.342 9.478-6.2C70.941 5.696 64.065 0 57.84 2.756z"/><path fill="#222" fill-rule="evenodd" d="M42.416 14.925c.093.46 1.347 3.582 2.694 6.889l2.509 6.016 13.24-.092 13.194-.138 2.695-6.2c1.44-3.398 2.648-6.475 2.695-6.796 0-.413-1.208-.551-4.646-.551H70.15l-2.184 2.25c-2.23 2.25-4.46 3.26-7.154 3.26-1.905 0-5.947-2.25-7.062-3.949l-1.022-1.561h-5.296c-4.924 0-5.25.046-5.017.872zM36.98 18.6c-3.298 3.306-3.623 3.765-3.763 5.648-.279 4.914-4.042 8.634-8.687 8.634-1.905 0-2.23.23-5.947 3.903-2.137 2.113-3.81 3.95-3.67 4.088.093.091 3.066 1.377 6.597 2.847l6.457 2.618 9.246-9.14c5.063-5.005 9.245-9.276 9.245-9.414 0-.689-5.25-12.813-5.529-12.813-.14 0-1.951 1.608-3.949 3.628zm40.65 3.122l-2.88 6.751 8.967 8.863c4.924 4.868 9.198 8.864 9.43 8.864.512 0 12.405-4.776 13.287-5.327.28-.138-1.161-1.883-3.112-3.904-3.578-3.582-3.578-3.582-5.575-3.307-1.626.184-2.555 0-4.6-1.01-3.577-1.7-5.017-3.903-5.25-7.99l-.185-3.032-3.299-3.352c-1.811-1.791-3.437-3.307-3.623-3.307-.14 0-1.58 3.031-3.16 6.751z"/><path fill="#222" fill-rule="evenodd" d="M21.974 15.89c-7.108 1.653-8.408 11.527-1.997 15.109 1.58.872 2.416 1.056 4.646.872 9.941-.688 10.36-14.603.464-16.119-.883-.138-2.323-.046-3.113.138zm71.638 1.102c-7.34 3.352-5.946 14.053 2.044 15.66 4.6.965 9.803-3.398 9.803-8.128-.047-2.25-1.533-5.144-3.485-6.614-2.044-1.515-6.085-1.974-8.362-.918zM13.937 46.567v4.96l1.626 1.561c3.763 3.628 3.624 10.104-.278 13.227l-1.348 1.056v5.557c0 4.225.14 5.465.604 5.281.279-.092 3.345-1.332 6.737-2.664l6.132-2.48-.093-12.996-.14-13.043-5.574-2.296c-3.066-1.24-6.04-2.48-6.597-2.71-1.069-.413-1.069-.367-1.069 4.547zm86.273-2.021l-6.83 2.756.093 13.088.14 13.043 6.875 2.893 6.83 2.847v-9.322l-1.627-1.286c-2.044-1.607-3.113-3.996-3.113-6.98-.046-2.71.976-4.915 3.206-6.935l1.58-1.424-.14-5.74-.14-5.74-6.875 2.8z"/><path fill="#222" fill-rule="evenodd" d="M6.272 51.894C2.834 53.134 0 57.634.743 60.758c.604 2.617 2.463 5.097 4.507 6.062 5.807 2.801 12.079-1.057 12.032-7.394-.046-5.465-5.807-9.369-11.01-7.532zm101.417 2.572c-2.416 1.286-3.763 3.353-3.996 6.292-.418 4.96 2.184 8.266 7.248 9.093 1.533.23 2.416.092 4.042-.69 3.159-1.515 4.552-3.627 4.785-7.117.232-3.582-.604-5.328-3.531-7.165-2.602-1.607-5.9-1.79-8.548-.413zM20.348 76.923l-6.41 2.618 4.088 3.995c3.252 3.215 4.32 3.996 5.435 3.996 4.414.045 9.06 4.822 9.06 9.414 0 1.056 8.083 9.277 8.501 8.68.14-.23 1.394-3.17 2.834-6.567l2.648-6.2-9.43-9.323c-5.204-5.143-9.618-9.322-9.896-9.277-.233 0-3.345 1.195-6.83 2.664zm63.462 6.521l-9.2 9.093 2.045 4.96c1.115 2.71 2.462 5.878 2.927 6.98l.883 2.021 3.623-3.582 3.624-3.536.186-2.94c.325-5.143 3.716-8.403 9.152-8.817 2.509-.183 2.694-.275 6.225-3.674 1.951-1.928 3.577-3.628 3.577-3.811 0-.184-.371-.414-.79-.551-.464-.138-3.577-1.378-6.921-2.756l-6.086-2.526-9.245 9.14z"/><path fill="#222" fill-rule="evenodd" d="M19.698 89.323c-4.97 2.296-6.411 8.725-2.834 12.767 4.785 5.373 13.38 2.8 14.541-4.317.372-2.526-1.393-6.292-3.67-7.853-2.23-1.47-5.621-1.745-8.037-.597zm73.914-.046c-6.411 3.03-6.504 11.619-.14 14.833 3.067 1.562 7.48.78 9.757-1.745 1.161-1.24 2.23-3.995 2.23-5.74 0-2.205-1.72-5.328-3.717-6.614-2.37-1.56-5.714-1.836-8.13-.734zM44.646 99.656c-1.58 3.674-2.834 6.75-2.834 6.888 0 .138 2.276.276 5.064.276h5.064l1.208-1.608c.696-.872 2.044-2.02 3.02-2.48 4.32-2.204 7.943-1.607 11.335 1.837l2.183 2.25h4.925c3.763 0 4.878-.137 4.692-.596-.14-.276-1.44-3.399-2.88-6.889l-2.648-6.292H47.48l-2.834 6.614z"/><path fill="#222" fill-rule="evenodd" d="M58.444 102.687c-3.485 1.056-5.947 4.362-5.947 8.082 0 2.756 1.394 5.19 3.856 6.797 3.717 2.434 9.663.964 11.66-2.847 1.766-3.445 1.209-7.073-1.532-9.782-2.277-2.296-5.203-3.077-8.037-2.25z"/></svg>