<svg xmlns="http://www.w3.org/2000/svg" xmlns:xlink="http://www.w3.org/1999/xlink" height="375" width="1280">
  <defs>
    <rect id="rect-3" opacity="1" x="705" y="194" width="48" height="48"/>
    <mask id="mask-4" maskUnits="userSpaceOnUse" maskContentUnits="userSpaceOnUse">
      <rect opacity="1" x="0" y="0" width="1280" height="375" fill="Black"/>
      <use xlink:href="#rect-3" fill="White"/>
    </mask>
    <rect id="rect-9" opacity="1" x="101" y="194" width="48" height="48"/>
    <mask id="mask-10" maskUnits="userSpaceOnUse" maskContentUnits="userSpaceOnUse">
      <rect opacity="1" x="0" y="0" width="1280" height="375" fill="Black"/>
      <use xlink:href="#rect-9" fill="White"/>
    </mask>
    <rect id="rect-16" opacity="1" x="101" y="269" width="48" height="48"/>
    <mask id="mask-17" maskUnits="userSpaceOnUse" maskContentUnits="userSpaceOnUse">
      <rect opacity="1" x="0" y="0" width="1280" height="375" fill="Black"/>
      <use xlink:href="#rect-16" fill="White"/>
    </mask>
    <rect id="rect-24" opacity="1" x="705" y="125" width="48" height="48"/>
    <mask id="mask-25" maskUnits="userSpaceOnUse" maskContentUnits="userSpaceOnUse">
      <rect opacity="1" x="0" y="0" width="1280" height="375" fill="Black"/>
      <use xlink:href="#rect-24" fill="White"/>
    </mask>
    <rect id="rect-39" opacity="1" x="101" y="125" width="48" height="48"/>
    <rect id="rect-40" opacity="1" x="101" y="125" width="48" height="48"/>
    <mask id="mask-41" maskUnits="userSpaceOnUse" maskContentUnits="userSpaceOnUse">
      <rect opacity="1" x="0" y="0" width="1280" height="375" fill="Black"/>
      <use xlink:href="#rect-40" fill="White"/>
    </mask>
    <rect id="rect-42" opacity="1" x="101" y="124.57221874999982" width="48" height="48.42778125000035"/>
    <rect id="rect-48" opacity="1" x="705" y="269" width="48" height="48"/>
    <mask id="mask-49" maskUnits="userSpaceOnUse" maskContentUnits="userSpaceOnUse">
      <rect opacity="1" x="0" y="0" width="1280" height="375" fill="Black"/>
      <use xlink:href="#rect-48" fill="White"/>
    </mask>
  </defs>
  <g opacity="1">
    <g opacity="1">
      <rect fill="rgb(255,255,255)" fill-opacity="1" opacity="1" x="0" y="370" width="1280" height="5"/>
    </g>
    <g opacity="1">
      <path fill="rgb(243,202,62)" fill-opacity="1" opacity="1" fill-rule="evenodd" d="M0 0L1280 0L1280 375L0 375L0 0Z"/>
    </g>
    <g opacity="1">
      <g opacity="1">
        <g/>
        <g mask="url(#mask-4)">
          <g opacity="1">
            <g opacity="1">
              <g opacity="1">
                <g opacity="1">
                  <path fill="rgb(0,0,0)" fill-opacity="1" opacity="1" fill-rule="evenodd" d="M718.744285655692 200.13086302565816L713.0255468251038 194.41212419506996C712.623172610991 194.01115622821052 712.02026753854 193.890312714233 711.4929248185063 194.1072497905278C710.9669883457259 194.32418686682254 710.6249890136934 194.83784211358966 710.6249890136934 195.40634100324024L710.6249890136934 202.79035783133236C710.1829586270339 202.63276438913206 709.7142095425595 202.53132708725178 709.21874176027 202.53132708725178C706.8924338038403 202.53132708725178 705 204.423760891092 705 206.7500688475218C705 209.07637680395155 706.8924338038403 210.96881060779177 709.21874176027 210.96881060779177C711.5450497166997 210.96881060779177 713.43748352054 209.07637680395155 713.43748352054 206.7500688475218L713.43748352054 198.89486543971594L716.7557582895346 202.11939039181564C717.3050384667217 202.6686705690028 718.1950054785049 202.6686705690028 718.744285655692 202.11939039181564C719.2935658328792 201.5701102146285 719.2935658328793 200.68014320284533 718.744285655692 200.13086302565816L718.744285655692 200.13086302565816Z"/>
                </g>
              </g>
            </g>
            <g opacity="1">
              <g opacity="1">
                <g opacity="1">
                  <path fill="rgb(0,0,0)" fill-opacity="1" opacity="1" fill-rule="evenodd" d="M727.3044876865475 219.79010587869934C726.2080835779618 218.69379551993052 724.4233683137338 218.69379551993052 723.327057954965 219.79010587869934C722.2306538463793 220.88632248765128 722.2306538463793 222.67122525151305 723.327057954965 223.7675356102819C724.423274563917 224.8639397188676 726.2080835779618 224.8639397188676 727.3044876865475 223.7675356102819C728.4008917951332 222.67131900132995 728.4008917951332 220.88641623746818 727.3044876865475 219.79010587869934L727.3044876865475 219.79010587869934Z"/>
                </g>
              </g>
            </g>
            <g opacity="1">
              <g opacity="1">
                <g opacity="1">
                  <path fill="rgb(0,0,0)" fill-opacity="1" opacity="1" fill-rule="evenodd" d="M740.0462128003657 203.8790744549326L726.7494887705298 216.3651438180784C727.6800494530285 216.60992458999095 728.565141474333 217.0732361850855 729.2932963021557 217.8013910129081C730.0205136318093 218.52860834256177 730.4832627280025 219.4121066169792 730.7284184991827 220.34135480204134L744.0237362817651 207.85659793633207L740.0462128003657 203.8790744549326L740.0462128003657 203.8790744549326Z"/>
                </g>
              </g>
            </g>
            <g opacity="1">
              <g opacity="1">
                <g opacity="1">
                  <path fill="rgb(0,0,0)" fill-opacity="1" opacity="1" fill-rule="evenodd" d="M752.2222290039062 197.0402069091797C752.657958984375 197.25808715820312 752.9161376953125 197.6600799560547 752.9801025390625 198.0919952392578L752.9998779296875 198.07830810546875L752.9998779296875 229.25003051757812C752.9998779296875 236.22903442382812 747.3226928710938 242 740.3436279296875 242L722.232421875 242C722.250244140625 241.9864044189453 722.2642822265625 241.9697265625 722.281982421875 241.95602416992188C719.2640380859375 241.94955444335938 716.2113037109375 240.7978515625 713.8970336914062 238.48353576660156L708.516357421875 233.0092010498047C704.40673828125 228.89968872070312 703.8251953125 222.45860290527344 707.1636352539062 218.02667236328125C709.3961181640625 215.06399536132812 712.9813842773438 213.43359375 716.6723022460938 213.5511474609375C717.248291015625 213.56951904296875 717.9921264648438 213.3228759765625 718.1978759765625 212.56358337402344C718.6998901367188 210.70208740234375 719.8020629882812 209.11228942871094 721.3839111328125 207.9656219482422C724.2322998046875 205.90313720703125 728.1702270507812 205.9875946044922 731.1509399414062 207.98643493652344L721.3372192382812 217.80026245117188L721.3384399414062 217.80148315429688C719.144775390625 219.99513244628906 718.957275390625 223.5627899169922 721.1509399414062 225.75643920898438C723.3443603515625 227.95008850097656 727.099609375 227.95008850097656 729.2932739257812 225.75643920898438C729.2974243164062 225.7523193359375 729.2998046875 225.74734497070312 729.303955078125 225.74322509765625L739.1062622070312 215.94064331054688C741.1063232421875 218.9217987060547 741.1909790039062 222.86068725585938 739.129150390625 225.70872497558594C737.9804077148438 227.29440307617188 736.3897705078125 228.3955841064453 734.5282592773438 228.89564514160156C733.771728515625 229.10067749023438 733.5239868164062 229.84552001953125 733.5426025390625 230.42123413085938C733.6493530273438 233.7760772705078 732.1123046875 236.97219848632812 729.643310546875 239.1875L740.3436279296875 239.1875C745.7709350585938 239.1875 750.1873779296875 234.6772918701172 750.1873779296875 229.25003051757812L750.1873779296875 201.6928253173828L746.0125122070312 205.86769104003906L742.0350952148438 201.8902587890625L745.3836669921875 194.77764892578125C745.7308959960938 194.0829620361328 746.5755004882812 193.8014373779297 747.2703857421875 194.1488800048828L752.2222290039062 197.0402069091797ZM721.15087890625 233.71128845214844C721.7003784179688 234.26095581054688 722.5899658203125 234.26095581054688 723.1396484375 233.71128845214844C723.6892700195312 233.16163635253906 723.6892700195312 232.2721405029297 723.1396484375 231.7225799560547L715.1846923828125 223.7676239013672C714.635009765625 223.2179718017578 713.7454223632812 223.2179718017578 713.1959838867188 223.7676239013672C712.6463012695312 224.3170928955078 712.6463012695312 225.20668029785156 713.1959838867188 225.75634765625L721.15087890625 233.71128845214844Z"/>
                </g>
              </g>
            </g>
          </g>
        </g>
      </g>
      <g opacity="1">
        <text font-size="0" transform="translate(783, 134)">
          <tspan font-size="25" font-family="Helvetica Neue" font-weight="700" style="white-space: pre;text-transform: none" fill="rgb(34,34,34)" x="0" y="24">Расширение социальных контактов</tspan>
        </text>
      </g>
      <g opacity="1">
        <text font-size="0" transform="translate(783, 203)">
          <tspan font-size="25" font-family="Helvetica Neue" font-weight="700" style="white-space: pre;text-transform: none" fill="rgb(34,34,34)" x="0" y="24">Выход из зоны комфорта</tspan>
        </text>
      </g>
      <g opacity="1">
        <text font-size="0" transform="translate(783, 278)">
          <tspan font-size="25" font-family="Helvetica Neue" font-weight="700" style="white-space: pre;text-transform: none" fill="rgb(34,34,34)" x="0" y="24">Заряд на весь год!</tspan>
        </text>
      </g>
      <g opacity="1">
        <text font-size="0" transform="translate(176, 203)">
          <tspan font-size="25" font-family="Helvetica Neue" font-weight="700" style="white-space: pre;text-transform: none" fill="rgb(34,34,34)" x="0" y="24">Самопознание и личностный рост</tspan>
        </text>
      </g>
      <g opacity="1">
        <g/>
        <g mask="url(#mask-10)">
          <g opacity="1">
            <g opacity="1">
              <g opacity="1">
                <g opacity="1">
                  <path fill="rgb(0,0,0)" fill-opacity="1" opacity="1" fill-rule="evenodd" d="M128.98516409147635 216.0034570244981L126.96363678977187 215.70823885109607C126.50491893570518 215.64233272981897 126.10948220804254 215.35395829305028 125.904826357761 214.9392091031073L124.99995312509152 213.10724393116425L124.09498614260517 214.9392091031073C123.89033029232361 215.35395829305028 123.49489356466097 215.64233272981897 123.03617571059428 215.70823885109607L121.0146484088898 216.0034570244981L122.47855179970348 217.42892299038488C122.80958240315934 217.7515161103202 122.960613358177 218.21707770102023 122.88233226106978 218.67307681039696L122.53761418434726 220.68766662565125L124.34623565188346 219.73732473178774C124.550891502165 219.62885619364036 124.7746723150931 219.57523129837648 124.99995312509152 219.57523129837648C125.22523393508995 219.57523129837648 125.44901474801804 219.62876244382346 125.65367059829958 219.73732473178774L127.46229206583577 220.68766662565125L127.11757398911327 218.67307681039696C127.03929289200603 218.2171714508371 127.1903238470237 217.75160986013708 127.52135445047955 217.42892299038488L128.98516409147635 216.0034570244981L128.98516409147635 216.0034570244981Z"/>
                </g>
              </g>
            </g>
            <g opacity="1">
              <g opacity="1">
                <g opacity="1">
                  <path fill="rgb(0,0,0)" fill-opacity="1" opacity="1" fill-rule="evenodd" d="M112.34381866455078 216.59388732910156C112.34381866455078 209.61495971679688 118.02102661132812 203.93775939941406 124.99995422363281 203.93775939941406C131.9788818359375 203.93775939941406 137.6560821533203 209.61495971679688 137.6560821533203 216.59388732910156C137.6560821533203 223.57281494140625 131.97897338867188 229.25003051757812 124.99995422363281 229.25003051757812C118.02093505859375 229.25003051757812 112.34381866455078 223.57281494140625 112.34381866455078 216.59388732910156ZM130.0135955810547 218.92703247070312L132.98818969726562 216.02801513671875C133.371337890625 215.65451049804688 133.50868225097656 215.0955810546875 133.3438720703125 214.5874481201172C133.17906188964844 214.0779266357422 132.73825073242188 213.70713806152344 132.20819091796875 213.63026428222656L128.0993194580078 213.031494140625L126.26051330566406 209.30848693847656C125.78800964355469 208.34718322753906 124.21151733398438 208.34718322753906 123.7391128540039 209.30848693847656L121.90029907226562 213.031494140625L117.79143524169922 213.63026428222656C117.2613754272461 213.70713806152344 116.82056427001953 214.0779266357422 116.65574645996094 214.5874481201172C116.49093627929688 215.0955810546875 116.62828063964844 215.65451049804688 117.01115417480469 216.02801513671875L119.9857406616211 218.92703247070312L119.28402709960938 223.0194091796875C119.19336700439453 223.5467529296875 119.410400390625 224.07962036132812 119.84296417236328 224.39405822753906C120.27693176269531 224.7113037109375 120.85236358642578 224.75115966796875 121.3233642578125 224.501220703125L124.99967193603516 222.57034301757812L128.6759796142578 224.501220703125C129.14276123046875 224.74871826171875 129.7205352783203 224.7125244140625 130.1563720703125 224.39405822753906C130.5889434814453 224.07962036132812 130.80596923828125 223.5467529296875 130.71531677246094 223.0194091796875L130.0135955810547 218.92703247070312Z"/>
                </g>
              </g>
            </g>
            <g opacity="1">
              <g opacity="1">
                <g opacity="1">
                  <path fill="rgb(0,0,0)" fill-opacity="1" opacity="1" fill-rule="evenodd" d="M144.7408447265625 209.46299743652344C144.47723388671875 210.4462432861328 144.76007080078125 211.50364685058594 145.4796905517578 212.2232666015625C147.69068908691406 214.43426513671875 147.69068908691406 218.02957153320312 145.47988891601562 220.240478515625C144.76025390625 220.96009826660156 144.47732543945312 222.0175018310547 144.74102783203125 222.9994354248047C145.1324462890625 224.46343994140625 144.93191528320312 225.99183654785156 144.17385864257812 227.302001953125C143.4171905517578 228.61346435546875 142.19497680664062 229.55142211914062 140.73239135742188 229.94284057617188C139.75045776367188 230.20654296875 138.97457885742188 230.98110961914062 138.7108612060547 231.96435546875C138.3194580078125 233.425537109375 137.38148498535156 234.64776611328125 136.0700225830078 235.40582275390625C134.76268005371094 236.16107177734375 133.23419189453125 236.36160278320312 131.7688751220703 235.9716033935547C130.77877807617188 235.70938110351562 129.7282257080078 235.99090576171875 129.00860595703125 236.71185302734375C127.9030990600586 237.81735229492188 126.45156860351562 238.36944580078125 124.99995422363281 238.36944580078125C123.54832458496094 238.36944580078125 122.0968017578125 237.81735229492188 120.99130249023438 236.71185302734375C120.27037048339844 235.9922332763672 119.21427917480469 235.70928955078125 118.23102569580078 235.9716033935547C116.76300048828125 236.36160278320312 115.2386245727539 236.16116333007812 113.92987823486328 235.40582275390625C112.61841583251953 234.649169921875 111.6804428100586 233.4269561767578 111.2890396118164 231.96435546875C111.02532196044922 230.982421875 110.2508544921875 230.2079620361328 109.2689208984375 229.94424438476562C106.25045776367188 229.13536071777344 104.45149230957031 226.02081298828125 105.25895690917969 223.00094604492188C105.5225830078125 222.0177001953125 105.23973846435547 220.96018981933594 104.5201187133789 220.24075317382812C102.30912017822266 218.02975463867188 102.30912017822266 214.43455505371094 104.5201187133789 212.2235565185547C105.23973846435547 211.50393676757812 105.52267456054688 210.446533203125 105.25895690917969 209.464599609375C104.8675537109375 208.00059509277344 105.06808471679688 206.47219848632812 105.82614135742188 205.1620330810547C106.58280181884766 203.85057067871094 107.80501556396484 202.91259765625 109.26760864257812 202.5211944580078C110.24945068359375 202.25747680664062 111.02400970458984 201.48301696777344 111.28772735595703 200.50088500976562C112.09791564941406 197.482421875 115.21378326416016 195.5883026123047 118.2309341430664 196.39718627929688C119.21690368652344 196.65536499023438 120.2715835571289 196.37796020507812 120.9912109375 195.65834045410156C123.20220184326172 193.4473419189453 126.79741668701172 193.4473419189453 129.00840759277344 195.65834045410156C129.7294464111328 196.37796020507812 130.78684997558594 196.66090393066406 131.7673797607422 196.39718627929688C133.23268127441406 196.0113067626953 134.75978088378906 196.206298828125 136.06993103027344 196.96437072753906C137.3813934326172 197.7210235595703 138.31936645507812 199.0369873046875 138.7107696533203 200.49957275390625C138.9744873046875 201.48150634765625 139.74896240234375 202.2559814453125 140.73089599609375 202.5196990966797C143.74935913085938 203.32847595214844 145.54830932617188 206.44313049316406 144.7408447265625 209.46299743652344ZM109.53132629394531 216.59390258789062C109.53132629394531 225.12335205078125 116.47059631347656 232.06253051757812 124.99995422363281 232.06253051757812C133.52931213378906 232.06253051757812 140.4685821533203 225.12335205078125 140.4685821533203 216.59390258789062C140.4685821533203 208.064453125 133.52931213378906 201.12527465820312 124.99995422363281 201.12527465820312C116.47059631347656 201.12527465820312 109.53132629394531 208.064453125 109.53132629394531 216.59390258789062Z"/>
                </g>
              </g>
            </g>
            <g opacity="1">
              <g opacity="1">
                <g opacity="1">
                  <path fill="rgb(0,0,0)" fill-opacity="1" opacity="1" fill-rule="evenodd" d="M148.5877820551132 231.55036415944502L146.2105679481095 229.2674623682376C145.06869517832976 230.9238341331365 143.42179214493726 232.1358317659536 141.45726473190484 232.65989324239604C140.8419846836237 234.87773266067842 139.43854992470722 236.70557284067806 137.47749125489992 237.83994562510622C136.90261737770047 238.17210122636482 136.28358733674352 238.40835076493994 135.6529323184916 238.59716289616625L138.55008290999436 241.5880633045639C138.88223851125295 241.92021890582248 139.3730188026977 242.07696859967072 139.86708033773374 241.96296882232653C140.34220440975704 241.85037529223578 140.7240474139699 241.50153222356988 140.87779711367753 241.03878312737672L142.6452624115969 235.64554366104755L148.03850187792605 233.87807836312822C148.5013447239361 233.7242349136037 148.85009404278512 233.3410794119543 148.96268757287586 232.86736158718443C149.0739686055301 232.39345626278077 148.93250013183572 231.89508223616755 148.5877820551132 231.55036415944502L148.5877820551132 231.55036415944502Z"/>
                </g>
              </g>
            </g>
            <g opacity="1">
              <g opacity="1">
                <g opacity="1">
                  <path fill="rgb(0,0,0)" fill-opacity="1" opacity="1" fill-rule="evenodd" d="M112.52382124253661 237.84116437272584C110.56276257272933 236.71091658024108 109.15792156655941 234.8817639028049 108.57151646188188 232.6899869336193C106.53461419020663 232.13376926998194 104.90158612971456 230.87086548659087 103.79336954420008 229.26324362647733L101.4121241950699 231.55017665981126C101.06740611834739 231.89489473653376 100.925937644653 232.39336251296388 101.03721867730724 232.86717408755064C101.149812207398 233.3408919123205 101.49856152624699 233.7240474139699 101.96140437225705 233.87789086349443L107.35464383858623 235.64535616141376L109.12210913650557 241.03859562774292C109.27595258603007 241.50143847375298 109.65770184042606 241.85018779260196 110.13282591244936 241.96278132269273C110.62604369913338 242.07659360040313 111.11691774039501 241.9206876549069 111.44982334018876 241.58787580493006L114.3471614313253 238.59678789689866C113.71735016142544 238.4083507649399 113.09888261936986 238.17247622563238 112.52382124253661 237.84116437272584L112.52382124253661 237.84116437272584Z"/>
                </g>
              </g>
            </g>
          </g>
        </g>
      </g>
      <g opacity="1">
        <text font-size="0" transform="translate(176, 278)">
          <tspan font-size="25" font-family="Helvetica Neue" font-weight="700" style="white-space: pre;text-transform: none" fill="rgb(34,34,34)" x="0" y="24">Спорт и развлечения</tspan>
        </text>
      </g>
      <g opacity="1">
        <g/>
        <g mask="url(#mask-17)">
          <g opacity="1">
            <g opacity="1">
              <g opacity="1">
                <g opacity="1">
                  <path fill="rgb(0,0,0)" fill-opacity="1" opacity="1" fill-rule="evenodd" d="M132.12865625 270.0592812499999C122.17821875 273.1195624999999 115.15625 282.55953124999996 115.15625 292.99999999999994C115.15625 293.47324999999995 115.205375 293.93421874999996 115.23265625 294.40071874999995C117.9216875 294.38712499999997 120.7270625 293.62512499999997 123.77253125 292.07674999999995C124.5231875 283.59828124999996 129.87884375 277.04178124999993 138.9085625 273.4309062499999C136.85975 271.97318749999994 134.583875 270.8166874999999 132.12865625 270.0592812499999L132.12865625 270.0592812499999Z"/>
                </g>
              </g>
            </g>
            <g opacity="1">
              <g opacity="1">
                <g opacity="1">
                  <path fill="rgb(0,0,0)" fill-opacity="1" opacity="1" fill-rule="evenodd" d="M141.45171875000003 275.52040624999995C137.24656250000004 276.99940624999994 132.70568750000004 279.56853125 129.73343750000004 283.67187499999994C138.37465625000004 285.37184375 145.34496875000005 291.62065624999997 147.92421875000002 300.09828125C148.62321875000004 297.8549375 149.00000000000003 295.4706875 149.00000000000003 293C149.00000000000003 286.1478125 146.08606250000003 279.88334374999994 141.45171875000003 275.52040624999995L141.45171875000003 275.52040624999995Z"/>
                </g>
              </g>
            </g>
            <g opacity="1">
              <g opacity="1">
                <g opacity="1">
                  <path fill="rgb(0,0,0)" fill-opacity="1" opacity="1" fill-rule="evenodd" d="M145.45559374999996 301.5336875000001C143.25415624999997 293.40256250000004 136.49946874999995 287.44484375 128.19837499999994 286.22112500000003C127.37628124999996 287.9316875 126.83628124999996 289.88918750000005 126.61362499999996 292.08471875000004C134.62128124999995 295.27175000000005 138.75246874999996 303.5958125000001 140.21731249999996 311.49621875000014C142.56818749999996 309.5705000000001 144.54321874999997 307.2055625000001 146.02343749999994 304.5290000000001C145.89968749999997 303.5270000000001 145.72474999999997 302.52706250000006 145.45559374999996 301.5336875000001L145.45559374999996 301.5336875000001Z"/>
                </g>
              </g>
            </g>
            <g opacity="1">
              <g opacity="1">
                <g opacity="1">
                  <path fill="rgb(0,0,0)" fill-opacity="1" opacity="1" fill-rule="evenodd" d="M125.15196875 294.53018750000007C121.6274375 296.33815625000005 118.36268749999999 297.21875000000006 115.15625 297.21875000000006C110.3804375 297.21875000000006 105.1619375 295.5891875000001 101.03590625 292.2900312500001C101.028875 292.52796875000007 101 292.76037500000007 101 293.00000000000006C101 296.0913125000001 101.60909375 299.0380625000001 102.68196875 301.7523125C103.814375 301.65443750000003 107.5565 305.65625 115.15625 305.65625C121.253 305.65625 126.9974375 302.8990625 130.76028125 298.0930625000001C129.18978125 296.5486250000001 127.32565625 295.3206875000001 125.15196875 294.53018750000007L125.15196875 294.53018750000007Z"/>
                </g>
              </g>
            </g>
            <g opacity="1">
              <g opacity="1">
                <g opacity="1">
                  <path fill="rgb(0,0,0)" fill-opacity="1" opacity="1" fill-rule="evenodd" d="M127.05978125000001 269.0995625C126.40971875000001 269.04621875 125.75740625000002 269 125.09375000000001 269C113.32137500000002 269 103.34590625000001 277.65434375 101.38175000000001 288.8725625C104.37828125000001 291.7724375 108.29478125000001 293.61415625000006 112.40862500000001 294.19165625000005C112.39100000000002 293.79340625000003 112.34375000000001 293.40284375000005 112.34375000000001 293.00000000000006C112.34375000000001 282.88259375 118.26434375000002 273.59825 127.05978125000001 269.0995625L127.05978125000001 269.0995625Z"/>
                </g>
              </g>
            </g>
            <g opacity="1">
              <g opacity="1">
                <g opacity="1">
                  <path fill="rgb(0,0,0)" fill-opacity="1" opacity="1" fill-rule="evenodd" d="M132.6176562499998 300.23346874999993C128.32268749999983 305.46246874999997 121.94187499999981 308.46874999999994 115.15624999999982 308.46874999999994C111.57903124999982 308.46874999999994 108.02768749999981 307.63174999999995 104.89531249999982 306.0397812499999C109.16693749999982 312.57265624999997 116.72215624999983 317 125.09374999999983 317C129.71009374999983 317 134.00984374999982 315.56899999999996 137.66824999999983 313.29378124999994C137.00393749999984 308.75984374999996 135.41178124999982 303.96706249999994 132.6176562499998 300.23346874999993L132.6176562499998 300.23346874999993Z"/>
                </g>
              </g>
            </g>
          </g>
        </g>
      </g>
      <g opacity="1">
        <g/>
        <g mask="url(#mask-25)">
          <g opacity="1">
            <g opacity="1">
              <g opacity="1">
                <g opacity="1">
                  <ellipse fill="rgb(0,0,0)" fill-opacity="1" opacity="1" rx="4.21875" ry="4.21875" cx="720.46875" cy="151.90625"/>
                </g>
              </g>
            </g>
            <g opacity="1">
              <g opacity="1">
                <g opacity="1">
                  <ellipse fill="rgb(0,0,0)" fill-opacity="1" opacity="1" rx="4.21875" ry="4.21875" cx="737.4375" cy="151.90625"/>
                </g>
              </g>
            </g>
            <g opacity="1">
              <g opacity="1">
                <g opacity="1">
                  <ellipse fill="rgb(0,0,0)" fill-opacity="1" opacity="1" rx="4.21875" ry="4.21875" cx="712.03125" cy="160.34375"/>
                </g>
              </g>
            </g>
            <g opacity="1">
              <g opacity="1">
                <g opacity="1">
                  <path fill="rgb(0,0,0)" fill-opacity="1" opacity="1" fill-rule="evenodd" d="M713.4375 125C711.10753125 125 709.21875 126.98253125 709.21875 129.3125C709.21875 131.64246875 711.10753125 133.53125 713.4375 133.53125C715.76746875 133.53125 717.65625 131.64246875 717.65625 129.3125C717.65625 126.98253125 715.76746875 125 713.4375 125L713.4375 125Z"/>
                </g>
              </g>
            </g>
            <g opacity="1">
              <g opacity="1">
                <g opacity="1">
                  <path fill="rgb(0,0,0)" fill-opacity="1" opacity="1" fill-rule="evenodd" d="M716.2089375 165.96668750000003C715.03753125 166.83978125000004 713.60109375 167.37500000000003 712.03125 167.37500000000003C710.46140625 167.37500000000003 709.02496875 166.83978125000004 707.8535625 165.96668750000003C706.13090625 167.24834375000003 705 169.28168750000006 705 171.59375000000006C705 172.37037500000005 705.629625 173.00000000000006 706.40625 173.00000000000006L717.65625 173.00000000000006C718.432875 173.00000000000006 719.0625 172.37037500000005 719.0625 171.59375000000006C719.0625 169.28168750000006 717.93159375 167.24834375000003 716.2089375 165.96668750000003L716.2089375 165.96668750000003Z"/>
                </g>
              </g>
            </g>
            <g opacity="1">
              <g opacity="1">
                <g opacity="1">
                  <path fill="rgb(0,0,0)" fill-opacity="1" opacity="1" fill-rule="evenodd" d="M728.90625 156.125C726.57628125 156.125 724.6875 158.01378125 724.6875 160.34375C724.6875 162.67371875 726.57628125 164.5625 728.90625 164.5625C731.23621875 164.5625 733.21875 162.67371875 733.21875 160.34375C733.21875 158.01378125 731.23621875 156.125 728.90625 156.125L728.90625 156.125Z"/>
                </g>
              </g>
            </g>
            <g opacity="1">
              <g opacity="1">
                <g opacity="1">
                  <path fill="rgb(0,0,0)" fill-opacity="1" opacity="1" fill-rule="evenodd" d="M733.1776875 165.96668750000003C732.00628125 166.83978125000004 730.47609375 167.37500000000003 728.90625 167.37500000000003C727.33640625 167.37500000000003 725.89996875 166.83978125000004 724.7285625 165.96668750000003C723.00590625 167.24834375000003 721.875 169.28168750000006 721.875 171.59375000000006C721.875 172.37037500000005 722.504625 173.00000000000006 723.28125 173.00000000000006L734.625 173.00000000000006C735.401625 173.00000000000006 736.03125 172.37037500000005 736.03125 171.59375000000006C736.03125 169.28168750000006 734.90034375 167.24834375000003 733.1776875 165.96668750000003L733.1776875 165.96668750000003Z"/>
                </g>
              </g>
            </g>
            <g opacity="1">
              <g opacity="1">
                <g opacity="1">
                  <path fill="rgb(0,0,0)" fill-opacity="1" opacity="1" fill-rule="evenodd" d="M745.875 156.125C743.54503125 156.125 741.65625 158.01378125 741.65625 160.34375C741.65625 162.67371875 743.54503125 164.5625 745.875 164.5625C748.20496875 164.5625 750.1875 162.67371875 750.1875 160.34375C750.1875 158.01378125 748.20496875 156.125 745.875 156.125L745.875 156.125Z"/>
                </g>
              </g>
            </g>
            <g opacity="1">
              <g opacity="1">
                <g opacity="1">
                  <path fill="rgb(0,0,0)" fill-opacity="1" opacity="1" fill-rule="evenodd" d="M750.1464375 165.96668750000003C748.97503125 166.83978125000004 747.44484375 167.37500000000003 745.875 167.37500000000003C744.30515625 167.37500000000003 742.86871875 166.83978125000004 741.6973125 165.96668750000003C739.97465625 167.24834375000003 738.84375 169.28168750000006 738.84375 171.59375000000006C738.84375 172.37037500000005 739.473375 173.00000000000006 740.25 173.00000000000006L751.59375 173.00000000000006C752.370375 173.00000000000006 753 172.37037500000005 753 171.59375000000006C753 169.28168750000006 751.86909375 167.24834375000003 750.1464375 165.96668750000003L750.1464375 165.96668750000003Z"/>
                </g>
              </g>
            </g>
            <g opacity="1">
              <g opacity="1">
                <g opacity="1">
                  <path fill="rgb(0,0,0)" fill-opacity="1" opacity="1" fill-rule="evenodd" d="M740.2859062499999 164.56250000000017C739.39359375 163.38368750000015 738.84375 161.93262500000014 738.84375 160.34375000000014C738.84375 159.78293750000014 738.9268125 159.24425000000014 739.0515 158.72103125000012C738.53165625 158.84825000000012 737.99728125 158.9375000000001 737.4375 158.9375000000001C736.87771875 158.9375000000001 736.34334375 158.84825000000012 735.8235000000001 158.72103125000012C735.9481875 159.24425000000014 736.03125 159.78293750000014 736.03125 160.34375000000014C736.03125 161.93262500000014 735.4814062500001 163.38368750000015 734.5890937500001 164.56250000000017L740.2859062499999 164.56250000000017L740.2859062499999 164.56250000000017Z"/>
                </g>
              </g>
            </g>
            <g opacity="1">
              <g opacity="1">
                <g opacity="1">
                  <path fill="rgb(0,0,0)" fill-opacity="1" opacity="1" fill-rule="evenodd" d="M723.3171562499999 164.56250000000017C722.4248437499999 163.38368750000015 721.8749999999999 161.93262500000014 721.8749999999999 160.34375000000014C721.8749999999999 159.78293750000014 721.9580625 159.24425000000014 722.0827499999999 158.72103125000012C721.56290625 158.84825000000012 721.0285312499999 158.9375000000001 720.46875 158.9375000000001C719.90896875 158.9375000000001 719.3745937499999 158.84825000000012 718.85475 158.72103125000012C718.9794374999999 159.24425000000014 719.0625 159.78293750000014 719.0625 160.34375000000014C719.0625 161.93262500000014 718.51265625 163.38368750000015 717.62034375 164.56250000000017L723.3171562499999 164.56250000000017L723.3171562499999 164.56250000000017Z"/>
                </g>
              </g>
            </g>
            <g opacity="1">
              <g opacity="1">
                <g opacity="1">
                  <path fill="rgb(0,0,0)" fill-opacity="1" opacity="1" fill-rule="evenodd" d="M748.78125 125L728.90625 125C726.57628125 125 724.6875 126.98253125 724.6875 129.3125L724.6875 143.46875C724.6875 145.79871875 726.57628125 147.6875 728.90625 147.6875L731.84840625 147.6875C733.13325 145.99025 735.149625 144.875 737.4375 144.875C739.725375 144.875 741.74175 145.99025 743.02659375 147.6875L748.78125 147.6875C751.11121875 147.6875 753 145.79871875 753 143.46875L753 129.3125C753 126.98253125 751.11121875 125 748.78125 125L748.78125 125Z"/>
                </g>
              </g>
            </g>
            <g opacity="1">
              <g opacity="1">
                <g opacity="1">
                  <path fill="rgb(0,0,0)" fill-opacity="1" opacity="1" fill-rule="evenodd" d="M717.8025 134.78093749999994C716.5993125 135.74365624999993 715.09453125 136.34374999999994 713.4375 136.34374999999994C711.78046875 136.34374999999994 710.2756875 135.74365624999993 709.0725 134.78093749999994C706.6400625 136.26153124999993 705 138.91296874999992 705 141.96874999999991L705 160.3437499999999C705 156.4669062499999 708.15440625 153.3124999999999 712.03125 153.3124999999999C712.58746875 153.3124999999999 713.12203125 153.3934999999999 713.64121875 153.5162187499999C713.5185 152.9970312499999 713.4375 152.4624687499999 713.4375 151.90624999999991C713.4375 148.0294062499999 716.59190625 144.87499999999991 720.46875 144.87499999999991C720.95025 144.87499999999991 721.42040625 144.92459374999993 721.875 145.01731249999992L721.875 141.96874999999991C721.875 138.91296874999992 720.2349375 136.26153124999993 717.8025 134.78093749999994L717.8025 134.78093749999994Z"/>
                </g>
              </g>
            </g>
          </g>
        </g>
      </g>
      <g opacity="1">
        <text font-size="0" transform="translate(176, 134)">
          <tspan font-size="25" font-family="Helvetica Neue" font-weight="700" style="white-space: pre;text-transform: none" fill="rgb(34,34,34)" x="0" y="24">Теория и практика прикладной психологии </tspan>
        </text>
      </g>
      <g opacity="1">
        <g/>
        <g mask="url(#mask-41)">
          <g opacity="1">
            <g opacity="1">
              <g opacity="1">
                <g opacity="1">
                  <path fill="rgb(0,0,0)" fill-opacity="1" opacity="1" fill-rule="evenodd" d="M146.1875 156.29028124999985L146.1875 143.60009374999981C145.653125 144.0781249999998 145.00634375 144.50009374999982 144.33134375 144.83759374999983L143.375 145.3156249999998L143.375 156.29028124999985C141.7416875 156.87274999999985 140.5625 158.41906249999985 140.5625 160.2499999999999C140.5625 162.5763124999999 142.4549375 164.4687499999999 144.78125 164.4687499999999C147.1075625 164.4687499999999 149 162.5763124999999 149 160.2499999999999C149 158.41906249999988 147.8208125 156.87274999999985 146.1875 156.29028124999985L146.1875 156.29028124999985Z"/>
                </g>
              </g>
            </g>
            <g opacity="1">
              <g opacity="1">
                <g opacity="1">
                  <path fill="rgb(0,0,0)" fill-opacity="1" opacity="1" fill-rule="evenodd" d="M123.59375000000004 141.96874999999972C120.43934375000003 141.96874999999972 117.96875000000003 140.11615624999973 117.96875000000003 137.74999999999974C117.96875000000003 135.38384374999976 120.43934375000003 133.53124999999977 123.59375000000004 133.53124999999977C126.08384375000006 133.53124999999977 128.12628125000006 134.69356249999976 128.88518750000006 136.34374999999974L145.9538750000001 136.34374999999974C145.52300000000008 135.03603124999975 144.5091875000001 133.89153124999976 143.09075000000007 133.19206249999976L129.35740625000005 126.28334374999982C125.88293750000005 124.57221874999982 121.30446875000004 124.57221874999982 117.83000000000004 126.28334374999982L104.09675 133.19206249999976C102.1865 134.13415624999976 101 135.87959374999974 101 137.74999999999974C101 139.62040624999972 102.1865 141.36584374999973 104.09675 142.3079374999997L117.83000000000004 149.09749999999968C119.56728125000004 149.95306249999965 121.56125000000004 150.40624999999966 123.59375000000004 150.40624999999966C125.62625000000006 150.40624999999966 127.62021875000005 149.95306249999965 129.35740625000005 149.09749999999968L143.09065625000008 142.3079374999997C144.5090937500001 141.6083749999997 145.5229062500001 140.4639687499997 145.95378125000008 139.15624999999974L128.88518750000006 139.15624999999974C128.12628125000006 140.80643749999973 126.08384375000006 141.96874999999972 123.59375000000004 141.96874999999972L123.59375000000004 141.96874999999972Z"/>
                </g>
              </g>
            </g>
            <g opacity="1">
              <g opacity="1">
                <g opacity="1">
                  <path fill="rgb(0,0,0)" fill-opacity="1" opacity="1" fill-rule="evenodd" d="M123.59375 136.34375C121.87709375 136.34375 120.78125 137.17596875 120.78125 137.75C120.78125 138.32403125 121.87709375 139.15625 123.59375 139.15625C125.31040625 139.15625 126.40625 138.32403125 126.40625 137.75C126.40625 137.17596875 125.31040625 136.34375 123.59375 136.34375L123.59375 136.34375Z"/>
                </g>
              </g>
            </g>
            <g opacity="1">
              <g opacity="1">
                <g opacity="1">
                  <path fill="rgb(0,0,0)" fill-opacity="1" opacity="1" fill-rule="evenodd" d="M130.6113125 151.61478125000014C128.47718749999999 152.66665625000016 126.0546875 153.21875000000014 123.59375 153.21875000000014C121.1328125 153.21875000000014 118.7103125 152.66665625000016 116.58725 151.62021875000013L109.53125 148.10787500000015L109.53125 154.62500000000014C109.53125 158.63365625000014 115.5764375 161.65625000000014 123.59375 161.65625000000014C131.6110625 161.65625000000014 137.75 158.63365625000014 137.75 154.62500000000014L137.75 148.10825000000014L130.6113125 151.61478125000014L130.6113125 151.61478125000014Z"/>
                </g>
              </g>
            </g>
            <g opacity="1">
              <g opacity="1">
                <g opacity="1">
                  <path fill="rgb(0,0,0)" fill-opacity="1" opacity="1" fill-rule="evenodd" d="M148.99671875 165.8419062500002C147.81865625 166.73262500000018 146.368625 167.2812500000002 144.78125 167.2812500000002C143.193875 167.2812500000002 141.74384375 166.73262500000018 140.56578125000001 165.8419062500002C140.56559375 165.85315625000018 140.5625 165.8636562500002 140.5625 165.8750000000002L140.5625 171.59375000000017C140.5625 172.37103125000016 141.19146875 173.00000000000017 141.96875 173.00000000000017L147.59375 173.00000000000017C148.37103125 173.00000000000017 149 172.37103125000016 149 171.59375000000017L149 165.8750000000002C149 165.8636562500002 148.99690625 165.85315625000018 148.99671874999999 165.8419062500002L148.99671875 165.8419062500002Z"/>
                </g>
              </g>
            </g>
          </g>
        </g>
      </g>
      <g opacity="1">
        <g/>
        <g mask="url(#mask-49)">
          <g opacity="1">
            <g opacity="1">
              <g opacity="1">
                <g opacity="1">
                  <path fill="rgb(0,0,0)" fill-opacity="1" opacity="1" fill-rule="evenodd" d="M738.84375 293C738.0664672851562 293 737.4375 293.62896728515625 737.4375 294.40625C737.4375 295.18353271484375 738.0664672851562 295.8125 738.84375 295.8125L740.10791015625 295.8125C739.4658813476562 300.8811950683594 735.4749755859375 304.87213134765625 730.40625 305.5141296386719L730.40625 304.25C730.40625 303.47271728515625 729.7772827148438 302.84375 729 302.84375C728.2227172851562 302.84375 727.59375 303.47271728515625 727.59375 304.25L727.59375 305.5141296386719C722.5250854492188 304.87213134765625 718.5341796875 300.8811950683594 717.8921508789062 295.8125L719.15625 295.8125C719.9335327148438 295.8125 720.5625 295.18353271484375 720.5625 294.40625C720.5625 293.62896728515625 719.9335327148438 293 719.15625 293L717.8921508789062 293C718.5341796875 287.9313049316406 722.5250854492188 283.94036865234375 727.59375 283.2983703613281L727.59375 284.5625C727.59375 285.33978271484375 728.2227172851562 285.96875 729 285.96875C729.7772827148438 285.96875 730.40625 285.33978271484375 730.40625 284.5625L730.40625 283.2983703613281C735.4749755859375 283.94036865234375 739.4658813476562 287.9313049316406 740.10791015625 293L738.84375 293ZM730.40625 296.14483642578125L733.0704345703125 290.81646728515625C733.4178466796875 290.12158203125 733.1363525390625 289.2770080566406 732.4414672851562 288.9295654296875C731.74658203125 288.5821228027344 730.9047241210938 288.86505126953125 730.5545654296875 289.55853271484375L727.7420654296875 295.18353271484375C727.6445922851562 295.3785400390625 727.59375 295.5941467285156 727.59375 295.8125L727.59375 298.625C727.59375 299.40228271484375 728.2227172851562 300.03125 729 300.03125C729.7772827148438 300.03125 730.40625 299.40228271484375 730.40625 298.625L730.40625 296.14483642578125Z"/>
                </g>
              </g>
            </g>
            <g opacity="1">
              <g opacity="1">
                <g opacity="1">
                  <path fill="rgb(0,0,0)" fill-opacity="1" opacity="1" fill-rule="evenodd" d="M730.40625 271.8125L730.40625 274.7900085449219C740.60546875 275.5160827636719 748.6875 284.0250244140625 748.6875 294.40625C748.6875 305.2621154785156 739.8558959960938 314.1875 729 314.1875C718.1441040039062 314.1875 709.3125 305.2621154785156 709.3125 294.40625C709.3125 284.0250244140625 717.3944702148438 275.5160827636719 727.59375 274.7900085449219L727.59375 271.8125L726.1875 271.8125C725.4102172851562 271.8125 724.78125 271.18353271484375 724.78125 270.40625C724.78125 269.62896728515625 725.4102172851562 269 726.1875 269L731.8125 269C732.5897827148438 269 733.21875 269.62896728515625 733.21875 270.40625C733.21875 271.18353271484375 732.5897827148438 271.8125 731.8125 271.8125L730.40625 271.8125ZM714.9375 294.40625C714.9375 302.15985107421875 721.2463989257812 308.46875 729 308.46875C736.7536010742188 308.46875 743.0625 302.15985107421875 743.0625 294.40625C743.0625 286.65264892578125 736.7536010742188 280.34375 729 280.34375C721.2463989257812 280.34375 714.9375 286.65264892578125 714.9375 294.40625Z"/>
                </g>
              </g>
            </g>
            <g opacity="1">
              <g opacity="1">
                <g opacity="1">
                  <path fill="rgb(0,0,0)" fill-opacity="1" opacity="1" fill-rule="evenodd" d="M741.65625 271.90625C739.916625 271.90625 738.2844375 272.44015625 736.9156875 273.3715625C742.215 275.37312499999996 746.5584375 279.30865624999996 749.08696875 284.3259687499999C749.7315 283.12221874999994 750.09375 281.76528124999993 750.09375 280.34374999999994C750.09375 275.69103125 746.30896875 271.90625 741.65625 271.90625L741.65625 271.90625Z"/>
                </g>
              </g>
            </g>
            <g opacity="1">
              <g opacity="1">
                <g opacity="1">
                  <path fill="rgb(0,0,0)" fill-opacity="1" opacity="1" fill-rule="evenodd" d="M716.34375 271.90625C711.69103125 271.90625 707.90625 275.69103125 707.90625 280.34374999999994C707.90625 281.76528124999993 708.2685 283.12221874999994 708.91303125 284.3259687499999C711.4415625 279.30865624999996 715.785 275.37312499999996 721.0843125 273.3715625C719.71546875 272.44015625 718.0833749999999 271.90625 716.34375 271.90625L716.34375 271.90625Z"/>
                </g>
              </g>
            </g>
            <g opacity="1">
              <g opacity="1">
                <g opacity="1">
                  <path fill="rgb(0,0,0)" fill-opacity="1" opacity="1" fill-rule="evenodd" d="M744.44128125 315.3177500000001L743.680125 311.513375C742.1191875 312.86225 740.3718749999999 313.99250000000006 738.4820625 314.8757187500001L742.43353125 316.8516875000001C742.9228125 317.0945937500001 743.4962812499999 317.0328125000001 743.91665625 316.7116250000001C744.342375 316.3848125000001 744.5470312499999 315.8450937500001 744.44128125 315.3177500000001L744.44128125 315.3177500000001Z"/>
                </g>
              </g>
            </g>
            <g opacity="1">
              <g opacity="1">
                <g opacity="1">
                  <path fill="rgb(0,0,0)" fill-opacity="1" opacity="1" fill-rule="evenodd" d="M714.319875 311.513375L713.5587187499999 315.31775000000005C713.45296875 315.84509375000005 713.6576249999999 316.38481250000007 714.0833437499999 316.7116250000001C714.50371875 317.0326250000001 715.07709375 317.0947812500001 715.56646875 316.8516875000001L719.5179375 314.87571875000003C717.628125 313.99250000000006 715.8808124999999 312.86234375000004 714.319875 311.513375L714.319875 311.513375Z"/>
                </g>
              </g>
            </g>
          </g>
        </g>
      </g>
    </g>
    <g opacity="1">
      <text font-size="0" transform="translate(100, 45)">
        <tspan font-size="35" font-family="Helvetica Neue" font-weight="900" style="white-space: pre;text-transform: none" fill="rgb(34,34,34)" x="0" y="34">Интенсив - это...</tspan>
      </text>
    </g>
  </g>
</svg>