<?xml version="1.0" encoding="iso-8859-1"?>
<!-- Generator: Adobe Illustrator 19.0.0, SVG Export Plug-In . SVG Version: 6.00 Build 0)  -->
<svg version="1.1" id="Capa_1" xmlns="http://www.w3.org/2000/svg" xmlns:xlink="http://www.w3.org/1999/xlink" x="0px" y="0px"
	 viewBox="0 0 512 512" style="enable-background:new 0 0 512 512;" xml:space="preserve">
<g>
	<g>
		<path d="M482,333.763V198.401c-5.7,5.099-12.599,9.6-19.799,13.2L452,216.7v117.063c-17.422,6.213-30,22.707-30,42.237
			c0,24.814,20.186,45,45,45c24.814,0,45-20.186,45-45C512,356.47,499.422,339.976,482,333.763z"/>
	</g>
</g>
<g>
	<g>
		<path d="M241,181c-33.647,0-60-19.761-60-45s26.353-45,60-45c26.561,0,48.347,12.398,56.442,30h182.066
			c-4.596-13.949-15.41-26.157-30.54-33.618L302.479,13.689c-37.061-18.252-85.898-18.252-122.959,0L33.032,87.382
			C12.656,97.431,0,116.049,0,136s12.656,38.569,33.032,48.618L179.52,257.04C198.051,266.166,219.32,271,241,271
			s42.949-4.834,61.479-13.96l146.488-72.422c15.13-7.462,25.944-19.669,30.54-33.618H297.442C289.347,168.602,267.561,181,241,181z
			"/>
	</g>
</g>
<g>
	<g>
		<path d="M241,121c-18.311,0-30,8.877-30,15s11.689,15,30,15c18.311,0,30-8.877,30-15S259.311,121,241,121z"/>
	</g>
</g>
<g>
	<g>
		<path d="M315.854,283.891C293.09,295.111,267.25,301,241,301s-52.09-5.889-74.736-17.051L91,246.484V316
			c0,42.759,64.482,75,150,75s151-32.241,151-75v-69.512L315.854,283.891z"/>
	</g>
</g>
<g>
	<g>
		<path d="M511.965,435.647C499.399,445.148,483.932,451,467,451s-32.399-5.852-44.965-15.353c-0.002,0.12-0.035,0.232-0.035,0.353
			v61c0,8.291,6.709,15,15,15h60c8.291,0,15-6.709,15-15v-61C512,435.879,511.967,435.767,511.965,435.647z"/>
	</g>
</g>
<g>
</g>
<g>
</g>
<g>
</g>
<g>
</g>
<g>
</g>
<g>
</g>
<g>
</g>
<g>
</g>
<g>
</g>
<g>
</g>
<g>
</g>
<g>
</g>
<g>
</g>
<g>
</g>
<g>
</g>
</svg>
