<?xml version="1.0" encoding="iso-8859-1"?>
<!-- Generator: Adobe Illustrator 19.0.0, SVG Export Plug-In . SVG Version: 6.00 Build 0)  -->
<svg version="1.1" id="Capa_1" xmlns="http://www.w3.org/2000/svg" xmlns:xlink="http://www.w3.org/1999/xlink" x="0px" y="0px"
	 viewBox="0 0 512 512" style="enable-background:new 0 0 512 512;" xml:space="preserve">
<g>
	<g>
		<circle cx="165" cy="287" r="45"/>
	</g>
</g>
<g>
	<g>
		<circle cx="346" cy="287" r="45"/>
	</g>
</g>
<g>
	<g>
		<circle cx="75" cy="377" r="45"/>
	</g>
</g>
<g>
	<g>
		<path d="M90,0C65.147,0,45,21.147,45,46c0,24.853,20.147,45,45,45c24.853,0,45-20.147,45-45C135,21.147,114.853,0,90,0z"/>
	</g>
</g>
<g>
	<g>
		<path d="M119.562,436.978C107.067,446.291,91.745,452,75,452s-32.067-5.709-44.562-15.022C12.063,450.649,0,472.338,0,497
			c0,8.284,6.716,15,15,15h120c8.284,0,15-6.716,15-15C150,472.338,137.937,450.649,119.562,436.978z"/>
	</g>
</g>
<g>
	<g>
		<path d="M255,332c-24.853,0-45,20.147-45,45c0,24.853,20.147,45,45,45c24.853,0,46-20.147,46-45C301,352.147,279.853,332,255,332z
			"/>
	</g>
</g>
<g>
	<g>
		<path d="M300.562,436.978C288.067,446.291,271.745,452,255,452s-32.067-5.709-44.562-15.022C192.063,450.649,180,472.338,180,497
			c0,8.284,6.716,15,15,15h121c8.284,0,15-6.716,15-15C331,472.338,318.937,450.649,300.562,436.978z"/>
	</g>
</g>
<g>
	<g>
		<path d="M436,332c-24.853,0-45,20.147-45,45c0,24.853,20.147,45,45,45c24.853,0,46-20.147,46-45C482,352.147,460.853,332,436,332z
			"/>
	</g>
</g>
<g>
	<g>
		<path d="M481.562,436.978C469.067,446.291,452.745,452,436,452s-32.067-5.709-44.562-15.022C373.063,450.649,361,472.338,361,497
			c0,8.284,6.716,15,15,15h121c8.284,0,15-6.716,15-15C512,472.338,499.937,450.649,481.562,436.978z"/>
	</g>
</g>
<g>
	<g>
		<path d="M376.383,422C366.865,409.426,361,393.948,361,377c0-5.982,0.886-11.728,2.216-17.309
			C357.671,361.048,351.971,362,346,362s-11.671-0.952-17.216-2.309C330.114,365.272,331,371.018,331,377
			c0,16.948-5.865,32.426-15.383,45H376.383z"/>
	</g>
</g>
<g>
	<g>
		<path d="M195.383,422C185.865,409.426,180,393.948,180,377c0-5.982,0.886-11.728,2.216-17.309
			C176.671,361.048,170.971,362,165,362s-11.671-0.952-17.216-2.309C149.114,365.272,150,371.018,150,377
			c0,16.948-5.865,32.426-15.383,45H195.383z"/>
	</g>
</g>
<g>
	<g>
		<path d="M467,0H255c-24.853,0-45,21.147-45,46v151c0,24.853,20.147,45,45,45h31.383c13.705-18.104,35.213-30,59.617-30
			s45.912,11.896,59.617,30H467c24.853,0,45-20.147,45-45V46C512,21.147,491.853,0,467,0z"/>
	</g>
</g>
<g>
	<g>
		<path d="M136.56,104.33C123.726,114.599,107.675,121,90,121s-33.726-6.401-46.56-16.67C17.494,120.123,0,148.405,0,181v196
			c0-41.353,33.647-75,75-75c5.933,0,11.635,0.864,17.173,2.173C90.864,298.635,90,292.933,90,287c0-41.353,33.647-75,75-75
			c5.136,0,10.151,0.529,15,1.518V181C180,148.405,162.506,120.123,136.56,104.33z"/>
	</g>
</g>
<g>
</g>
<g>
</g>
<g>
</g>
<g>
</g>
<g>
</g>
<g>
</g>
<g>
</g>
<g>
</g>
<g>
</g>
<g>
</g>
<g>
</g>
<g>
</g>
<g>
</g>
<g>
</g>
<g>
</g>
</svg>
