<?xml version="1.0" encoding="iso-8859-1"?>
<!-- Generator: Adobe Illustrator 19.0.0, SVG Export Plug-In . SVG Version: 6.00 Build 0)  -->
<svg version="1.1" id="Capa_1" xmlns="http://www.w3.org/2000/svg" xmlns:xlink="http://www.w3.org/1999/xlink" x="0px" y="0px"
	 viewBox="0 0 512.001 512.001" style="enable-background:new 0 0 512.001 512.001;" xml:space="preserve">
<g>
	<g>
		<path d="M298.509,234.704l-21.563-3.149c-4.893-0.703-9.111-3.779-11.294-8.203L256,203.811l-9.653,19.541
			c-2.183,4.424-6.401,7.5-11.294,8.203l-21.563,3.149l15.615,15.205c3.531,3.441,5.142,8.407,4.307,13.271l-3.677,21.489
			l19.292-10.137c2.183-1.157,4.57-1.729,6.973-1.729c2.403,0,4.79,0.571,6.973,1.729l19.292,10.137l-3.677-21.489
			c-0.835-4.863,0.776-9.829,4.307-13.271L298.509,234.704z"/>
	</g>
</g>
<g>
	<g>
		<path d="M256,106.003c-74.442,0-134.999,60.557-134.999,134.999S181.557,376.001,256,376.001s134.999-60.557,134.999-134.999
			S330.442,106.003,256,106.003z M341.208,234.966l-31.729,30.923l7.485,43.652c0.967,5.625-1.348,11.309-5.962,14.663
			c-4.649,3.397-10.812,3.783-15.791,1.143l-39.214-20.596l-39.214,20.596c-5.024,2.666-11.162,2.241-15.791-1.143
			c-4.614-3.354-6.929-9.038-5.962-14.663l7.485-43.652l-31.729-30.923c-4.084-3.984-5.549-9.946-3.791-15.366
			c1.758-5.435,6.46-9.39,12.114-10.21l43.828-6.387l19.614-39.712c5.039-10.254,21.855-10.254,26.895,0l19.614,39.712l43.828,6.387
			c5.654,0.82,10.356,4.775,12.114,10.21C346.76,225.02,345.295,230.982,341.208,234.966z"/>
	</g>
</g>
<g>
	<g>
		<path d="M474.451,194.382c-7.676-7.676-10.693-18.955-7.881-29.443c8.613-32.212-10.576-65.435-42.773-74.062
			c-10.474-2.813-18.735-11.074-21.548-21.548c-4.175-15.601-14.18-29.638-28.169-37.709c-13.975-8.086-30.264-10.166-45.894-6.05
			c-10.459,2.813-21.738-0.205-29.429-7.881c-23.584-23.584-61.933-23.584-85.517,0c-7.676,7.676-18.926,10.635-29.443,7.881
			c-32.183-8.628-65.419,11.576-74.061,43.773c-2.813,10.476-11.075,18.737-21.548,21.55c-15.601,4.175-28.638,14.18-36.709,28.169
			c-8.086,13.975-10.225,30.278-6.05,45.894c2.813,10.474-0.205,21.753-7.881,29.429c-23.584,23.584-23.584,61.933,0,85.517
			c7.676,7.674,10.693,18.954,7.881,29.442c-8.613,32.212,10.576,65.434,42.773,74.062c10.474,2.813,18.735,11.074,21.548,21.548
			c4.175,15.601,14.18,28.638,28.169,36.709c13.96,8.057,30.22,10.195,45.879,6.035c10.488-2.798,21.753,0.22,29.443,7.896
			c11.792,11.792,27.275,17.681,42.759,17.681s30.967-5.889,42.759-17.681c7.676-7.69,18.882-10.693,29.443-7.896
			c15.63,4.16,31.934,2.021,45.879-6.035c13.989-8.086,23.994-21.123,28.169-36.709c2.813-10.488,11.089-18.75,21.563-21.563
			c15.601-4.175,28.638-14.18,36.709-28.169c8.086-13.975,10.225-30.278,6.05-45.894c-2.813-10.474,0.205-21.753,7.881-29.429
			C498.035,256.316,498.035,217.966,474.451,194.382z M256,406.001c-90.98,0-164.999-74.018-164.999-164.999
			S165.02,76.003,256,76.003s164.999,74.018,164.999,164.999S346.98,406.001,256,406.001z"/>
	</g>
</g>
<g>
	<g>
		<path d="M507.604,400.538l-25.357-24.351c-12.18,17.668-29.747,30.596-50.702,36.186c-6.563,23.657-21.533,43.154-42.451,55.254
			c-6.132,3.543-12.735,6.063-19.462,8.077l30.903,31.903c3.543,3.543,8.778,5.215,14.048,3.999
			c5.068-1.201,9.141-4.922,10.781-9.858l18.853-57.528l57.528-18.853c4.937-1.641,8.657-5.728,9.858-10.781
			C512.79,409.531,511.281,404.215,507.604,400.538z"/>
	</g>
</g>
<g>
	<g>
		<path d="M122.921,467.64c-20.918-12.056-35.903-31.567-42.158-54.946c-21.727-5.933-39.146-19.404-50.967-36.552l-25.4,24.394
			c-3.677,3.677-5.186,8.994-3.999,14.048c1.201,5.053,4.921,9.14,9.858,10.781l57.528,18.853l18.853,57.528
			c1.641,4.937,5.713,8.657,10.781,9.858c5.261,1.214,10.497-0.449,14.048-3.999L142.37,475.7
			C135.652,473.69,129.055,471.174,122.921,467.64z"/>
	</g>
</g>
<g>
</g>
<g>
</g>
<g>
</g>
<g>
</g>
<g>
</g>
<g>
</g>
<g>
</g>
<g>
</g>
<g>
</g>
<g>
</g>
<g>
</g>
<g>
</g>
<g>
</g>
<g>
</g>
<g>
</g>
</svg>
