<?xml version="1.0" encoding="iso-8859-1"?>
<!-- Generator: Adobe Illustrator 19.0.0, SVG Export Plug-In . SVG Version: 6.00 Build 0)  -->
<svg version="1.1" id="Capa_1" xmlns="http://www.w3.org/2000/svg" xmlns:xlink="http://www.w3.org/1999/xlink" x="0px" y="0px"
	 viewBox="0 0 512.001 512.001" style="enable-background:new 0 0 512.001 512.001;" xml:space="preserve">
<g>
	<g>
		<path d="M146.606,65.396l-61-61C81.314,0.119,74.883-1.17,69.258,1.144C63.648,3.458,60,8.937,60,15.001v78.763
			c-4.715-1.681-9.715-2.763-15-2.763c-24.814,0-45,20.186-45,45c0,24.814,20.186,45,45,45s45-20.186,45-45V52.212l35.395,34.395
			c5.859,5.859,15.352,5.859,21.211,0S152.465,71.255,146.606,65.396z"/>
	</g>
</g>
<g>
	<g>
		<path d="M237.915,275.095c-11.695-11.694-30.732-11.694-42.426,0c-11.695,11.693-11.695,30.732,0,42.426
			c11.693,11.695,30.731,11.695,42.426,0C249.61,305.828,249.61,286.789,237.915,275.095z"/>
	</g>
</g>
<g>
	<g>
		<path d="M373.827,105.377L231.995,238.562c9.926,2.611,19.367,7.553,27.134,15.32c7.757,7.757,12.693,17.181,15.308,27.093
			l141.817-133.171L373.827,105.377z"/>
	</g>
</g>
<g>
	<g>
		<path d="M511.789,43.648c-0.682-4.607-3.436-8.895-8.084-11.219l-52.82-30.841c-7.412-3.706-16.421-0.703-20.125,6.707
			l-35.718,75.868l42.426,42.426L482,82.057v293.944c0,57.891-47.109,106-105,106H262.863c26.336-23.63,42.731-57.722,41.592-93.507
			c-0.198-6.141,2.444-14.086,10.514-16.273c19.856-5.334,36.823-17.08,49.076-33.994c21.993-30.379,21.09-72.394-0.244-104.193
			L259.243,338.595c-0.044,0.044-0.07,0.097-0.114,0.141c-23.399,23.399-63.455,23.399-86.852,0
			c-23.399-23.399-21.399-61.454,2-84.853l-0.013-0.013l104.68-104.681c-31.794-21.321-73.799-22.222-104.182-0.222
			c-16.873,12.231-28.629,29.189-33.984,49.045c-2.195,8.099-10.129,10.73-16.273,10.534c-39.37-1.254-77.613,16.137-101.426,47.739
			c-35.61,47.274-29.407,115.979,14.429,159.814l57.394,58.393c24.686,24.686,57.248,36.971,89.44,37.04
			c-0.189,0.146-0.339,0.324-0.529,0.469H377c74.443,0,135-61.557,135-136V43.502L511.789,43.648z M193.49,423.588
			c-5.863,5.863-15.352,5.863-21.213,0l-84.853-84.853c-5.863-5.863-5.863-15.352,0-21.213c5.861-5.863,15.35-5.863,21.213,0
			l84.853,84.853C199.353,408.237,199.353,417.725,193.49,423.588z"/>
	</g>
</g>
<g>
</g>
<g>
</g>
<g>
</g>
<g>
</g>
<g>
</g>
<g>
</g>
<g>
</g>
<g>
</g>
<g>
</g>
<g>
</g>
<g>
</g>
<g>
</g>
<g>
</g>
<g>
</g>
<g>
</g>
</svg>
