<?xml version="1.0" encoding="iso-8859-1"?>
<!-- Generator: Adobe Illustrator 19.0.0, SVG Export Plug-In . SVG Version: 6.00 Build 0)  -->
<svg version="1.1" id="Capa_1" xmlns="http://www.w3.org/2000/svg" xmlns:xlink="http://www.w3.org/1999/xlink" x="0px" y="0px"
	 viewBox="0 0 512 512" style="enable-background:new 0 0 512 512;" xml:space="preserve">
<g>
	<g>
		<path d="M332.039,11.299C225.901,43.942,151,144.635,151,256c0,5.048,0.524,9.965,0.815,14.941
			c28.683-0.145,58.607-8.273,91.092-24.789c8.007-90.437,65.134-160.373,161.451-198.889
			C382.504,31.714,358.228,19.378,332.039,11.299z"/>
	</g>
</g>
<g>
	<g>
		<path d="M431.485,69.551c-44.855,15.776-93.291,43.18-124.995,86.949c92.173,18.133,166.523,84.787,194.035,175.215
			C507.981,307.786,512,282.354,512,256C512,182.91,480.918,116.089,431.485,69.551z"/>
	</g>
</g>
<g>
	<g>
		<path d="M474.193,347.026c-23.482-86.732-95.532-150.281-184.077-163.334c-8.769,18.246-14.529,39.126-16.904,62.545
			c85.415,33.995,129.481,122.785,145.106,207.056c25.076-20.541,46.143-45.767,61.932-74.317
			C478.93,368.288,477.064,357.622,474.193,347.026z"/>
	</g>
</g>
<g>
	<g>
		<path d="M257.621,272.322C220.026,291.607,185.202,301,151,301c-50.942,0-106.606-17.382-150.617-52.573
			C0.308,250.965,0,253.444,0,256c0,32.974,6.497,64.406,17.941,93.358C30.02,348.314,69.936,391,151,391
			c65.032,0,126.306-29.41,166.443-80.674C300.691,293.852,280.807,280.754,257.621,272.322z"/>
	</g>
</g>
<g>
	<g>
		<path d="M277.971,1.062C271.037,0.493,264.079,0,257,0C131.428,0,25.023,92.313,4.072,211.974
			c31.963,30.932,73.739,50.577,117.62,56.737C121.504,264.463,121,260.297,121,256C121,148.081,184.153,49.048,277.971,1.062z"/>
	</g>
</g>
<g>
	<g>
		<path d="M337.255,333.157C291.442,388.933,223.38,421,151,421c-38.157,0-76.038-8.928-109.45-25.909
			C87.114,464.775,167.703,512,257,512c49.241,0,95.105-15.264,134.128-39.533C384.042,424.105,367.059,372.982,337.255,333.157z"/>
	</g>
</g>
<g>
</g>
<g>
</g>
<g>
</g>
<g>
</g>
<g>
</g>
<g>
</g>
<g>
</g>
<g>
</g>
<g>
</g>
<g>
</g>
<g>
</g>
<g>
</g>
<g>
</g>
<g>
</g>
<g>
</g>
</svg>
