<?xml version="1.0" encoding="iso-8859-1"?>
<!-- Generator: Adobe Illustrator 19.0.0, SVG Export Plug-In . SVG Version: 6.00 Build 0)  -->
<svg version="1.1" id="Capa_1" xmlns="http://www.w3.org/2000/svg" xmlns:xlink="http://www.w3.org/1999/xlink" x="0px" y="0px"
	 viewBox="0 0 512 512" style="enable-background:new 0 0 512 512;" xml:space="preserve">
<g>
	<g>
		<path d="M346,271c0-8.291,6.709-15,15-15h13.484c-6.848-54.066-49.418-96.636-103.484-103.484V166c0,8.291-6.709,15-15,15
			s-15-6.709-15-15v-13.484c-54.066,6.848-96.636,49.418-103.484,103.484H151c8.291,0,15,6.709,15,15c0,8.291-6.709,15-15,15
			h-13.484c6.848,54.066,49.418,96.636,103.484,103.484V376c0-8.291,6.709-15,15-15s15,6.709,15,15v13.484
			c54.066-6.848,96.636-49.418,103.484-103.484H361C352.709,286,346,279.291,346,271z M299.418,232.709L271,289.545V316
			c0,8.291-6.709,15-15,15s-15-6.709-15-15v-30c0-2.329,0.542-4.629,1.582-6.709l30-60c3.735-7.397,12.715-10.415,20.127-6.709
			C300.121,216.288,303.124,225.297,299.418,232.709z"/>
	</g>
</g>
<g>
	<g>
		<path d="M271,61.76V30h15c8.291,0,15-6.709,15-15s-6.709-15-15-15h-60c-8.291,0-15,6.709-15,15s6.709,15,15,15h15v31.76
			C132.208,69.505,46,160.267,46,271c0,115.796,94.204,211,210,211s210-95.204,210-211C466,160.267,379.792,69.505,271,61.76z
			 M256,421c-82.705,0-150-67.295-150-150s67.295-150,150-150s150,67.295,150,150S338.705,421,256,421z"/>
	</g>
</g>
<g>
	<g>
		<path d="M391,31c-18.556,0-35.966,5.695-50.566,15.63c56.526,21.35,102.856,63.329,129.827,116.847
			C477.136,150.637,481,136.163,481,121C481,71.371,440.629,31,391,31z"/>
	</g>
</g>
<g>
	<g>
		<path d="M121,31c-49.629,0-90,40.371-90,90c0,15.163,3.864,29.637,10.739,42.477C68.71,109.959,115.04,67.98,171.566,46.63
			C156.965,36.695,139.556,31,121,31z"/>
	</g>
</g>
<g>
	<g>
		<path d="M420.707,494.056l-8.119-40.58c-16.65,14.388-35.288,26.444-55.446,35.865l42.149,21.077
			c5.219,2.591,11.336,1.932,15.82-1.494C419.652,505.438,421.835,499.681,420.707,494.056z"/>
	</g>
</g>
<g>
	<g>
		<path d="M99.412,453.476l-8.119,40.58c-1.128,5.625,1.055,11.382,5.596,14.868c4.484,3.424,10.6,4.087,15.82,1.494l42.149-21.077
			C134.7,479.92,116.062,467.865,99.412,453.476z"/>
	</g>
</g>
<g>
</g>
<g>
</g>
<g>
</g>
<g>
</g>
<g>
</g>
<g>
</g>
<g>
</g>
<g>
</g>
<g>
</g>
<g>
</g>
<g>
</g>
<g>
</g>
<g>
</g>
<g>
</g>
<g>
</g>
</svg>
