<svg xmlns="http://www.w3.org/2000/svg" xmlns:xlink="http://www.w3.org/1999/xlink" height="595" width="1500"><defs><mask id="c" maskUnits="userSpaceOnUse" maskContentUnits="userSpaceOnUse" x="0" y="0"><path d="M0 0h1347v618.523H0z"/><use xlink:href="#a" fill="#fff"/></mask><mask id="d" maskUnits="userSpaceOnUse" maskContentUnits="userSpaceOnUse" x="0" y="0"><path fill="#fff" d="M0 0h1347v618.523H0z"/><use xlink:href="#b"/></mask><circle id="a" opacity="1" cx="283.963" cy="335" r="15"/><path id="b" opacity="1" fill-rule="evenodd" d="M267 393l34 202h747.5l-703-264-78.5 62z"/></defs><path fill="none" d="M0 0h1280v595H0z"/><path fill="#FFF" d="M0 590h298v5H0zm1049 0h451v5h-451z"/><path fill="#222" fill-rule="evenodd" d="M171 533.949v-6h16v6h10v13h-36v-13h10z"/><path fill="#222" fill-rule="evenodd" d="M0 552v-10.051h46.974a5.026 5.026 0 110 10.051H0zm62-5.051c0-2.76 2.24-5 5-5h140c2.76 0 5 2.24 5 5s-2.24 5-5 5H67c-2.76 0-5-2.24-5-5z"/><circle fill="#222" cx="76" cy="394.949" r="18"/><circle fill="#222" cx="126" cy="509.949" r="18"/><circle fill="#222" cx="199" cy="310.949" r="18"/><path fill="#222" fill-rule="evenodd" d="M129.096 509.67L75 388.17l3.654-1.627 54.096 121.501-3.654 1.627zm-6 8L69 396.17l3.654-1.627 54.096 121.501-3.654 1.627z"/><path fill="#222" fill-rule="evenodd" d="M81.314 392.513l110.262-74.373 2.237 3.316L83.55 395.83l-2.237-3.316zm-8.92-4.52l110.262-74.373 2.236 3.317L74.63 391.309l-2.236-3.316z"/><path fill="#222" d="M119 522.949h14v24h-14z"/><use xlink:href="#a" fill-opacity="0" stroke="#222" stroke-width="8" mask="url(#c)" transform="rotate(2 260.744 305.281)"/><path fill="#222" fill-rule="evenodd" d="M209.984 275.136l35.46-27.705 30.078 38.498 44.902 23.31-72.812 52.9-8.198-49.335-11.478-14.69-18.253 14.26-8.62-11.032 18.254-14.261-9.333-11.945z"/><use xlink:href="#b" fill="#F3CA3E"/><use xlink:href="#b" fill-opacity="0" stroke="#FFF" stroke-width="10" mask="url(#d)"/></svg>