<svg xmlns="http://www.w3.org/2000/svg" xmlns:xlink="http://www.w3.org/1999/xlink" height="120" width="120">
  <g opacity="1">
    <g opacity="1">
      <g opacity="1">
        <path fill="rgb(34,34,34)" fill-opacity="1" opacity="1" fill-rule="evenodd" d="M57.83972125435538 2.7554535017221506C50.54587688734034 5.970149253731325 51.89314750290362 16.808266360505115 59.79094076655049 18.4156142365097C63.507549361207836 19.15040183696894 68.29268292682919 16.073478760045877 69.26829268292673 12.215843857634864C70.94076655052254 5.694603903559113 64.06504065040643 0 57.83972125435536 2.7554535017221506L57.83972125435538 2.7554535017221506Z"/>
      </g>
      <g opacity="1">
        <path fill="rgb(34,34,34)" fill-opacity="1" opacity="1" fill-rule="evenodd" d="M42.41579558652732 14.925373134328524C42.50871080139375 15.38461538461555 43.76306620209061 18.507462686567337 45.11033681765394 21.814006888633926L47.61904761904767 27.830080367393975L60.85946573751467 27.738231917336577L74.05342624854845 27.60045924225046L76.74796747967507 21.4006888633756C78.18815331010482 18.002296211251597 79.39605110336846 14.925373134328524 79.44250871080169 14.603903559127597C79.44250871080169 14.190585533869271 78.23461091753802 14.05281285878317 74.79674796747994 14.05281285878317L70.15098722415817 14.05281285878317L67.96747967479696 16.303099885189603C65.73751451800251 18.55338691159604 63.50754936120806 19.563719862227494 60.81300813008147 19.563719862227494C58.908246225319544 19.563719862227494 54.86643437862962 17.313432835821057 53.75145180023241 15.614236509759063L52.72938443670163 14.05281285878317L47.43321718931484 14.05281285878317C42.50871080139377 14.05281285878317 42.18350754936125 14.098737083811871 42.41579558652734 14.925373134328524L42.41579558652732 14.925373134328524Z"/>
      </g>
      <g opacity="1">
        <path fill="rgb(34,34,34)" fill-opacity="1" opacity="1" fill-rule="evenodd" d="M36.98025551684083 18.599311136624767C33.681765389082415 21.905855338691367 33.35656213704989 22.365097588978394 33.21718931475024 24.247990815155223C32.938443670150946 29.161882893226423 29.17537746806036 32.881745120551365 24.529616724738645 32.881745120551365C22.62485481997674 32.881745120551365 22.299651567944213 33.11136624569488 18.583042973286844 36.78530424799111C16.445993031358856 38.897818599311435 14.77351916376304 40.734787600459555 14.912891986062684 40.872560275545666C15.005807200929114 40.964408725603064 17.979094076655013 42.25028702640675 21.509872241579515 43.71986222732524L27.967479674796703 46.3375430539613L37.21254355400691 37.19862227324943C42.27642276422759 32.192881745120815 46.457607433217134 27.92192881745145 46.457607433217134 27.78415614236534C46.457607433217134 27.095292766934797 41.20789779326359 14.971297359357237 40.9291521486643 14.971297359357237C40.78977932636465 14.971297359357237 38.97793263646919 16.578645235361837 36.98025551684084 18.599311136624767L36.98025551684083 18.599311136624767Z"/>
      </g>
      <g opacity="1">
        <path fill="rgb(34,34,34)" fill-opacity="1" opacity="1" fill-rule="evenodd" d="M77.63066202090606 21.72215843857654L74.75029036004662 28.47301951779584L83.71660859465749 37.336394948335474C88.64111498257849 42.20436280137798 92.91521486643444 46.199770378875115 93.14750290360053 46.199770378875115C93.65853658536591 46.199770378875115 105.55168408826941 41.42365097589004 106.43437862950056 40.87256027554558C106.71312427409987 40.73478760045947 105.27293844367014 38.98966704936878 103.32171893147503 36.969001148105846C99.74448315911734 33.386911595867026 99.74448315911734 33.386911595867026 97.746806039489 33.662456946039256C96.12078977932642 33.84615384615407 95.19163763066207 33.662456946039256 93.14750290360054 32.6521239954078C89.57026713124284 30.952927669345804 88.13008130081312 28.748564867968064 87.89779326364703 24.66130884041352L87.71196283391417 21.630309988519137L84.41347270615576 18.27784156142383C82.60162601626031 16.48679678530442 80.97560975609773 14.971297359357237 80.78977932636484 14.971297359357237C80.65040650406519 14.971297359357237 79.21022067363548 18.00229621125162 77.63066202090609 21.72215843857654L77.63066202090606 21.72215843857654Z"/>
      </g>
      <g opacity="1">
        <path fill="rgb(34,34,34)" fill-opacity="1" opacity="1" fill-rule="evenodd" d="M21.9744483159118 15.88978185993104C14.86643437862956 17.54305396096434 13.565621370499485 27.416762342135463 19.976771196283455 30.99885189437429C21.55632984901284 31.871412169919648 22.392566782810746 32.05510907003446 24.622531939605175 31.871412169919648C34.56445993031366 31.182548794489104 34.98257839721262 17.267508610792127 25.087108013937346 15.752009184844939C24.204413472706218 15.614236509758825 22.764227642276488 15.70608495981624 21.9744483159118 15.889781859931054L21.9744483159118 15.88978185993104Z"/>
      </g>
      <g opacity="1">
        <path fill="rgb(34,34,34)" fill-opacity="1" opacity="1" fill-rule="evenodd" d="M93.6120789779328 16.9919632606202C86.27177700348443 20.344431687715502 87.66550522648096 31.044776119403224 95.65621370499436 32.65212399540782C100.25551684088286 33.61653272101057 105.45876887340324 29.253731343283818 105.45876887340324 24.523536165327442C105.41231126597002 22.27324913892101 103.92566782810707 19.380022962112747 101.97444831591193 17.910447761194252C99.93031358885038 16.394948335247058 95.88850174216044 15.935706084960032 93.6120789779328 16.9919632606202L93.6120789779328 16.9919632606202Z"/>
      </g>
      <g opacity="1">
        <path fill="rgb(34,34,34)" fill-opacity="1" opacity="1" fill-rule="evenodd" d="M13.937282229965177 46.567164179104594L13.937282229965177 51.526980482204515L15.563298490127782 53.088404133180404C19.326364692218377 56.71641791044793 19.186991869918735 63.19173363949505 15.28455284552848 66.31458094144685L13.937282229965177 67.37083811710703L13.937282229965177 72.92766934558009C13.937282229965177 77.15269804822076 14.076655052264835 78.39265212399573 14.541231126597006 78.20895522388093C14.819976771196307 78.11710677382354 17.886178861788643 76.87715269804855 21.27758420441351 75.54535017221616L27.409988385598183 73.06544202066621L27.317073170731753 60.06888633754327L27.177700348432097 47.02640642939165L21.602787456446027 44.7301951779565C18.53658536585369 43.49024110218153 15.563298490127782 42.25028702640655 15.00580720092918 42.02066590126304C13.937282229965177 41.607347876004724 13.937282229965177 41.65327210103341 13.937282229965177 46.56716417910462L13.937282229965177 46.567164179104594Z"/>
      </g>
      <g opacity="1">
        <path fill="rgb(34,34,34)" fill-opacity="1" opacity="1" fill-rule="evenodd" d="M100.2090592334497 44.54649827784172L93.37979094076672 47.30195177956388L93.47270615563315 60.39035591274412L93.61207897793281 73.43283582089565L100.487804878049 76.32606199770392L107.31707317073197 79.17336394948347L107.31707317073197 69.85074626865686L105.69105691056936 68.56486796785319C103.6469221835078 66.9575200918486 102.57839721254379 64.56946039035607 102.57839721254379 61.5843857634904C102.53193960511057 58.87485648679696 103.55400696864137 56.670493685419224 105.78397212543578 54.649827784156294L107.36353077816517 53.2261768082665L107.22415795586551 47.485648679678675L107.08478513356586 41.74512055109085L100.20905923344966 44.54649827784172L100.2090592334497 44.54649827784172Z"/>
      </g>
      <g opacity="1">
        <path fill="rgb(34,34,34)" fill-opacity="1" opacity="1" fill-rule="evenodd" d="M6.271777003484324 51.894374282433816C2.8339140534262475 53.13432835820879 0 57.63490241102168 0.7433217189314728 60.757749712973485C1.3472706155633019 63.375430539609546 3.2055749128919904 65.85533869115952 5.2497096399535375 66.81974741676227C11.056910569105689 69.62112514351315 17.328687572590013 65.76349024110209 17.282229965156798 59.425947187141084C17.235772357723583 53.960964408725445 11.475029036004647 50.057405281285696 6.271777003484324 51.894374282433816L6.271777003484324 51.894374282433816Z"/>
      </g>
      <g opacity="1">
        <path fill="rgb(34,34,34)" fill-opacity="1" opacity="1" fill-rule="evenodd" d="M107.68873403019745 54.466130884041426C105.27293844367017 55.75200918484511 103.92566782810685 57.81859931113672 103.69337979094077 60.75774971297368C103.27526132404182 65.71756601607356 105.87688734030196 69.02411021814015 110.94076655052265 69.8507462686568C112.47386759581883 70.08036739380032 113.35656213704993 69.9425947187142 114.98257839721254 69.16188289322626C118.14169570267131 67.64638346727907 119.53542392566783 65.53386911595877 119.76771196283391 62.04362801377736C120 58.46153846153855 119.16376306620208 56.716417910447845 116.2369337979094 54.87944890929974C113.63530778164923 53.27210103329515 110.33681765389082 53.08840413318035 107.68873403019745 54.466130884041426L107.68873403019745 54.466130884041426Z"/>
      </g>
      <g opacity="1">
        <path fill="rgb(34,34,34)" fill-opacity="1" opacity="1" fill-rule="evenodd" d="M20.348432055749154 76.92307692307712L13.937282229965177 79.54075774971315L18.025551684088292 83.53616532721026C21.277584204413497 86.75086107921943 22.3461091753775 87.53157290470736 23.4610917537747 87.53157290470736C27.874564459930333 87.57749712973607 32.52032520325205 92.35361653272112 32.52032520325205 96.94603903559137C32.52032520325205 98.00229621125152 40.60394889663183 106.22273249138925 41.022067363530795 105.6257175660161C41.16144018583046 105.3960964408726 42.41579558652732 102.45694603903566 43.85598141695706 99.05855338691165L46.50406504065043 92.85878300803682L37.073170731707336 83.53616532721023C31.86991869918702 78.39265212399556 27.456445993031387 74.21354764638363 27.177700348432072 74.25947187141234C26.94541231126599 74.25947187141234 23.832752613240444 75.45350172215862 20.348432055749154 76.92307692307709L20.348432055749154 76.92307692307712Z"/>
      </g>
      <g opacity="1">
        <path fill="rgb(34,34,34)" fill-opacity="1" opacity="1" fill-rule="evenodd" d="M83.8095238095239 83.44431687715287L74.6109175377469 92.53731343283607L76.65505226480845 97.497129735936C77.77003484320564 100.20665901262947 79.11730545876895 103.37543053961 79.58188153310113 104.47761194029886L80.46457607433224 106.49827784156179L84.08826945412318 102.91618828932295L87.71196283391411 99.38002296211282L87.89779326364697 96.44087256027584C88.22299651567948 91.2973593570611 91.61440185830435 88.03673938002316 97.04994192799074 87.62342135476486C99.55865272938445 87.43972445465005 99.74448315911734 87.34787600459262 103.27526132404182 83.9494833524686C105.22648083623693 82.02066590126309 106.85249709639953 80.32146957520108 106.85249709639953 80.13777267508625C106.85249709639953 79.95407577497146 106.48083623693378 79.72445464982793 106.06271777003485 79.58668197474182C105.59814169570268 79.44890929965571 102.48548199767714 78.20895522388074 99.14053426248552 76.83122847301964L93.05458768873406 74.30539609644097L83.80952380952387 83.44431687715287L83.8095238095239 83.44431687715287Z"/>
      </g>
      <g opacity="1">
        <path fill="rgb(34,34,34)" fill-opacity="1" opacity="1" fill-rule="evenodd" d="M19.698025551684182 89.32261768082662C14.727061556329936 91.61882893226176 13.286875725900188 98.04822043628012 16.864111498257927 102.08955223880596C21.649245063879313 107.46268656716416 30.243902439024517 104.89092996555682 31.405342624854946 97.77267508610792C31.77700348432069 95.24684270952928 30.011614401858427 91.48105625717567 27.735191637630777 89.91963260619977C25.505226480836342 88.45005740528129 22.113821138211488 88.17451205510906 19.698025551684182 89.32261768082662L19.698025551684182 89.32261768082662Z"/>
      </g>
      <g opacity="1">
        <path fill="rgb(34,34,34)" fill-opacity="1" opacity="1" fill-rule="evenodd" d="M93.61207897793274 89.27669345579794C87.20092915214872 92.30769230769236 87.1080139372823 100.89552238805989 93.47270615563308 104.11021814006912C96.53890824622545 105.67164179104503 100.9523809523811 104.89092996555708 103.22880371660875 102.3650975889784C104.39024390243918 101.12514351320341 105.45876887340319 98.36969001148121 105.45876887340319 96.62456946039048C105.45876887340319 94.4202066590127 103.73983739837415 91.29735935706087 101.74216027874579 90.0114810562572C99.37282229965169 88.4500574052813 96.02787456446003 88.17451205510906 93.61207897793274 89.27669345579794L93.61207897793274 89.27669345579794Z"/>
      </g>
      <g opacity="1">
        <path fill="rgb(34,34,34)" fill-opacity="1" opacity="1" fill-rule="evenodd" d="M44.64576074332171 99.65556831228483C43.066202090592334 103.32950631458108 41.81184668989545 106.40642939150419 41.81184668989545 106.54420206659032C41.81184668989545 106.68197474167643 44.08826945412308 106.81974741676254 46.87572590011611 106.81974741676254L51.93960511033678 106.81974741676254L53.14750290360044 105.21239954075793C53.84436701509869 104.33983926521258 55.19163763066198 103.191733639495 56.167247386759556 102.73249138920796C60.48780487804876 100.5281285878302 64.11149825783971 101.12514351320334 67.50290360046455 104.56946039035608L69.68641114982574 106.81974741676254L74.61091753774679 106.81974741676254C78.37398373983739 106.81974741676254 79.48896631823459 106.68197474167643 79.30313588850173 106.2227324913894C79.16376306620208 105.94718714121716 77.86295005807199 102.82433983926536 76.42276422764226 99.3340987370839L73.7746806039489 93.04247990815156L47.47967479674794 93.04247990815156L44.64576074332168 99.65556831228483L44.64576074332171 99.65556831228483Z"/>
      </g>
      <g opacity="1">
        <path fill="rgb(34,34,34)" fill-opacity="1" opacity="1" fill-rule="evenodd" d="M58.4436701509872 102.6865671641791C54.959349593495915 103.74282433983926 52.497096399535394 107.04936854190585 52.497096399535394 110.76923076923076C52.497096399535394 113.52468427095292 53.89082462253191 115.95866819747417 56.35307781649243 117.56601607347875C60.06968641114981 120 66.01626016260161 118.53042479908152 68.01393728222996 114.71871412169921C69.77932636469222 111.2743972445465 69.22183507549363 107.64638346727901 66.48083623693378 104.93685419058554C64.20441347270616 102.64064293915041 61.277584204413465 101.85993111366247 58.4436701509872 102.68656716417912L58.4436701509872 102.6865671641791Z"/>
      </g>
    </g>
  </g>
</svg>