<svg xmlns="http://www.w3.org/2000/svg" viewBox="0 0 512.001 512.001"><path d="M146.606 65.396l-61-61a15.033 15.033 0 00-16.348-3.252A14.984 14.984 0 0060 15.001v78.763c-4.715-1.681-9.715-2.763-15-2.763-24.814 0-45 20.186-45 45s20.186 45 45 45 45-20.186 45-45V52.212l35.395 34.395c5.859 5.859 15.352 5.859 21.211 0s5.859-15.352 0-21.211zm91.309 209.699c-11.695-11.694-30.732-11.694-42.426 0-11.695 11.693-11.695 30.732 0 42.426 11.693 11.695 30.731 11.695 42.426 0 11.695-11.693 11.695-30.732 0-42.426zm135.912-169.718L231.995 238.562c9.926 2.611 19.367 7.553 27.134 15.32 7.757 7.757 12.693 17.181 15.308 27.093l141.817-133.171-42.427-42.427z"/><path d="M511.789 43.648c-.682-4.607-3.436-8.895-8.084-11.219l-52.82-30.841c-7.412-3.706-16.421-.703-20.125 6.707l-35.718 75.868 42.426 42.426L482 82.057v293.944c0 57.891-47.109 106-105 106H262.863c26.336-23.63 42.731-57.722 41.592-93.507-.198-6.141 2.444-14.086 10.514-16.273 19.856-5.334 36.823-17.08 49.076-33.994 21.993-30.379 21.09-72.394-.244-104.193L259.243 338.595c-.044.044-.07.097-.114.141-23.399 23.399-63.455 23.399-86.852 0-23.399-23.399-21.399-61.454 2-84.853l-.013-.013 104.68-104.681c-31.794-21.321-73.799-22.222-104.182-.222-16.873 12.231-28.629 29.189-33.984 49.045-2.195 8.099-10.129 10.73-16.273 10.534-39.37-1.254-77.613 16.137-101.426 47.739-35.61 47.274-29.407 115.979 14.429 159.814l57.394 58.393c24.686 24.686 57.248 36.971 89.44 37.04-.189.146-.339.324-.529.469H377c74.443 0 135-61.557 135-136V43.502l-.211.146zM193.49 423.588c-5.863 5.863-15.352 5.863-21.213 0l-84.853-84.853c-5.863-5.863-5.863-15.352 0-21.213 5.861-5.863 15.35-5.863 21.213 0l84.853 84.853c5.863 5.862 5.863 15.35 0 21.213z"/></svg>