<svg xmlns="http://www.w3.org/2000/svg" viewBox="0 0 512 512"><path d="M332.039 11.299C225.901 43.942 151 144.635 151 256c0 5.048.524 9.965.815 14.941 28.683-.145 58.607-8.273 91.092-24.789 8.007-90.437 65.134-160.373 161.451-198.889-21.854-15.549-46.13-27.885-72.319-35.964z"/><path d="M431.485 69.551c-44.855 15.776-93.291 43.18-124.995 86.949 92.173 18.133 166.523 84.787 194.035 175.215C507.981 307.786 512 282.354 512 256c0-73.09-31.082-139.911-80.515-186.449z"/><path d="M474.193 347.026c-23.482-86.732-95.532-150.281-184.077-163.334-8.769 18.246-14.529 39.126-16.904 62.545 85.415 33.995 129.481 122.785 145.106 207.056a256.71 256.71 0 0061.932-74.317c-1.32-10.688-3.186-21.354-6.057-31.95zm-216.572-74.704C220.026 291.607 185.202 301 151 301 100.058 301 44.394 283.618.383 248.427.308 250.965 0 253.444 0 256c0 32.974 6.497 64.406 17.941 93.358C30.02 348.314 69.936 391 151 391c65.032 0 126.306-29.41 166.443-80.674-16.752-16.474-36.636-29.572-59.822-38.004z"/><path d="M277.971 1.062C271.037.493 264.079 0 257 0 131.428 0 25.023 92.313 4.072 211.974c31.963 30.932 73.739 50.577 117.62 56.737-.188-4.248-.692-8.414-.692-12.711 0-107.919 63.153-206.952 156.971-254.938zm59.284 332.095C291.442 388.933 223.38 421 151 421c-38.157 0-76.038-8.928-109.45-25.909C87.114 464.775 167.703 512 257 512c49.241 0 95.105-15.264 134.128-39.533-7.086-48.362-24.069-99.485-53.873-139.31z"/></svg>