<?xml version="1.0" standalone="no"?>
<!DOCTYPE svg PUBLIC "-//W3C//DTD SVG 20010904//EN"
 "http://www.w3.org/TR/2001/REC-SVG-20010904/DTD/svg10.dtd">
<svg version="1.0" xmlns="http://www.w3.org/2000/svg"
 width="326.000000pt" height="288.000000pt" viewBox="0 0 326.000000 288.000000"
 preserveAspectRatio="xMidYMid meet">
<g transform="translate(0.000000,288.000000) scale(0.100000,-0.100000)"
fill="#000000" stroke="none">
<path d="M924 2526 c-34 -8 -84 -26 -111 -40 -62 -31 -153 -113 -189 -170 -27
-43 -28 -43 -95 -49 -131 -11 -254 -98 -315 -222 -27 -55 -29 -69 -29 -170 0
-103 2 -114 31 -175 19 -39 37 -97 44 -145 24 -156 79 -264 185 -364 91 -84
205 -135 357 -156 45 -7 47 -9 89 -78 128 -216 276 -341 436 -369 58 -10 83
-9 149 4 l79 15 45 -32 c25 -18 73 -46 106 -63 73 -37 163 -130 286 -297 46
-63 87 -114 91 -114 13 -1 157 93 157 103 0 5 -25 56 -55 113 -30 57 -55 105
-55 107 0 2 35 6 78 9 95 8 178 29 259 67 71 33 117 87 157 185 l24 60 74 6
c137 11 253 91 315 217 45 89 56 157 50 292 -4 93 -11 134 -37 215 -33 101
-84 213 -145 315 -27 47 -33 68 -38 138 -7 116 -52 209 -144 301 -97 96 -227
150 -363 151 -30 0 -75 13 -135 39 -97 42 -252 84 -380 103 -115 17 -398 14
-524 -6 -93 -14 -108 -14 -148 -1 -65 22 -178 27 -249 11z m235 -65 c49 -17
60 -18 130 -5 42 8 140 17 218 21 l142 6 -5 -49 c-7 -61 9 -180 36 -261 16
-51 19 -73 12 -116 -5 -30 -5 -89 0 -132 4 -43 7 -79 6 -81 -2 -1 -27 3 -57 9
-40 7 -81 7 -154 -1 -159 -19 -172 1 -121 199 30 115 25 155 -22 200 -28 26
-54 28 -265 19 -108 -4 -163 19 -215 89 -40 54 -41 66 -11 82 77 42 216 51
306 20z m776 -13 c102 -20 202 -50 289 -87 44 -20 48 -23 41 -49 -10 -41 -52
-101 -87 -122 -52 -31 -97 -33 -222 -9 -108 20 -118 21 -163 6 -26 -9 -50 -14
-54 -11 -25 15 -53 277 -32 298 9 9 107 -2 228 -26z m-1118 -117 c26 -36 56
-64 93 -85 50 -28 63 -31 145 -31 50 0 122 3 161 5 120 8 136 -27 89 -189 -30
-103 -31 -146 -5 -189 29 -48 57 -54 197 -46 118 6 204 -4 218 -26 3 -4 10
-42 16 -85 21 -138 -11 -156 -146 -80 -127 72 -218 114 -250 115 -74 5 -88 0
-125 -39 l-37 -38 -26 93 c-34 122 -71 197 -120 241 -81 73 -162 83 -311 39
-95 -28 -174 -33 -256 -15 -56 12 -55 9 -43 119 6 60 8 63 42 78 20 8 67 16
105 18 l69 3 24 43 c26 46 103 130 115 126 4 -2 24 -27 45 -57z m1736 -49
c126 -58 239 -195 254 -312 6 -42 5 -43 -18 -36 -13 3 -58 9 -101 13 -68 5
-77 8 -87 30 -50 109 -155 162 -237 120 -16 -8 -72 -59 -124 -112 -90 -93
-151 -134 -195 -135 -74 0 -169 69 -237 174 -45 69 -47 89 -13 104 34 15 75
15 155 -3 185 -41 285 -3 352 132 l32 66 76 -6 c55 -3 94 -13 143 -35z m-83
-237 c30 -15 80 -74 80 -93 0 -6 -15 -14 -32 -17 -101 -22 -204 -109 -307
-261 -139 -204 -177 -209 -292 -38 -37 56 -88 119 -112 139 -41 34 -45 42 -56
105 -19 115 -11 166 16 107 20 -44 114 -136 165 -161 68 -34 143 -35 206 -4
26 14 80 61 129 113 121 128 144 141 203 110z m-2116 -84 c2 -9 7 -36 10 -61
14 -103 76 -149 175 -132 85 15 107 -5 95 -84 -6 -42 -8 -44 -58 -58 -60 -18
-158 -75 -204 -119 -41 -39 -46 -33 -62 77 -7 51 -23 105 -43 145 -27 55 -32
76 -32 140 0 42 6 93 13 113 l13 37 45 -21 c24 -12 46 -29 48 -37z m574 13
c97 -40 145 -133 197 -381 17 -83 14 -98 -24 -111 -36 -13 -73 1 -187 65 -89
51 -145 76 -196 87 -27 6 -28 9 -28 72 0 60 -3 68 -30 96 -31 30 -31 30 -113
23 -73 -6 -85 -4 -99 12 -17 19 -43 101 -35 110 3 2 39 0 80 -7 82 -12 160 -4
262 30 74 23 124 25 173 4z m1669 -134 c16 -63 16 -158 -1 -214 -24 -78 -54
-108 -178 -172 -81 -42 -129 -75 -170 -116 l-56 -56 -91 29 c-182 58 -459 87
-535 55 -88 -37 -87 -107 1 -228 40 -56 33 -65 -43 -54 -147 20 -247 132 -304
339 -19 70 -20 83 -9 135 15 65 53 112 92 112 40 0 99 -25 202 -84 127 -73
185 -93 226 -76 42 18 59 57 59 136 0 82 3 80 93 -54 70 -104 104 -132 162
-132 70 0 111 36 218 191 79 115 158 190 230 218 75 29 90 25 104 -29z m206
35 c9 -4 17 -17 17 -30 0 -12 21 -58 47 -100 59 -98 120 -239 143 -330 10 -38
16 -72 15 -74 -2 -2 -26 2 -53 9 -62 16 -117 6 -150 -27 l-26 -26 -15 24 c-35
54 -88 99 -118 99 -37 0 -53 -17 -93 -103 -38 -80 -72 -107 -140 -107 -53 0
-170 38 -170 56 0 23 91 93 183 140 51 25 106 57 122 69 72 53 115 197 95 319
-6 36 -13 73 -17 82 -6 16 1 17 68 11 41 -3 82 -8 92 -12z m-2200 -332 c-15
-80 -8 -150 21 -193 37 -56 93 -79 213 -91 100 -9 137 -24 148 -59 8 -25 -18
-115 -44 -154 l-19 -29 -16 30 c-16 32 -40 43 -91 43 -93 0 -244 64 -326 138
-55 49 -129 153 -129 182 0 32 196 169 243 170 4 0 5 -17 0 -37z m165 18 c27
-11 87 -42 133 -69 122 -72 173 -84 239 -58 12 5 21 -10 39 -66 50 -156 127
-258 236 -310 53 -25 70 -28 149 -27 48 1 91 -2 95 -7 40 -56 111 -169 111
-179 0 -8 -40 2 -117 28 -215 74 -347 63 -490 -39 l-72 -52 -34 37 c-36 40
-97 126 -97 136 0 4 17 41 37 82 26 52 38 92 41 132 4 50 1 61 -23 89 -30 36
-65 47 -179 57 -44 3 -94 12 -112 20 -65 27 -90 111 -63 208 12 44 32 47 107
18z m1973 -282 l30 -47 -20 -81 c-23 -93 -39 -127 -76 -161 -46 -43 -98 -35
-250 37 -72 34 -156 69 -188 78 -31 9 -57 22 -57 28 0 7 9 27 20 45 16 25 25
32 38 27 204 -86 307 -66 374 74 46 95 47 96 75 69 13 -12 37 -43 54 -69z
m-825 20 c92 -17 232 -55 243 -65 2 -1 -5 -22 -14 -46 l-18 -43 -141 -1 c-112
0 -159 -4 -229 -22 -49 -12 -90 -22 -91 -22 -7 0 -97 131 -105 152 -11 30 1
52 39 68 34 14 188 4 316 -21z m1084 -17 l35 -17 -1 -76 c-1 -41 -7 -93 -14
-115 -15 -48 -52 -124 -59 -124 -3 1 -33 65 -67 144 -57 134 -60 145 -47 170
25 48 77 54 153 18z m-135 -256 c26 -63 45 -122 43 -132 -2 -12 -30 -33 -72
-54 -63 -32 -76 -35 -151 -34 l-81 0 -17 -55 c-19 -67 -73 -157 -107 -183 -67
-49 -306 -98 -402 -82 -21 3 -38 3 -38 0 0 -4 30 -65 66 -137 36 -72 64 -132
62 -133 -50 -35 -70 -48 -72 -45 -67 91 -113 150 -169 216 l-69 83 12 51 c8
31 11 86 8 139 l-5 88 63 4 c117 7 177 74 209 233 9 44 17 81 19 82 6 7 150
-49 261 -101 98 -45 130 -56 173 -56 60 0 83 9 130 53 31 30 72 118 72 157 0
43 20 15 65 -94z m-772 58 c12 -4 12 -17 -3 -88 -9 -46 -26 -99 -36 -117 -32
-56 -132 -94 -189 -73 -9 4 -31 36 -50 73 -18 36 -49 88 -69 116 -20 27 -32
53 -28 56 26 26 326 52 375 33z m-430 -272 c117 -39 141 -51 150 -72 11 -28
15 -205 4 -216 -9 -9 -118 48 -190 101 l-57 42 -63 -14 c-126 -30 -259 -4
-347 67 l-25 20 35 31 c42 37 116 76 167 89 73 18 177 3 326 -48z"/>
</g>
</svg>
