<?xml version="1.0" standalone="no"?>
<!DOCTYPE svg PUBLIC "-//W3C//DTD SVG 20010904//EN"
 "http://www.w3.org/TR/2001/REC-SVG-20010904/DTD/svg10.dtd">
<svg version="1.0" xmlns="http://www.w3.org/2000/svg"
 width="304.000000pt" height="268.000000pt" viewBox="0 0 304.000000 268.000000"
 preserveAspectRatio="xMidYMid meet">
<g transform="translate(0.000000,268.000000) scale(0.100000,-0.100000)"
fill="#000000" stroke="none">
<path d="M815 2490 c-142 -25 -272 -112 -339 -226 -17 -29 -24 -32 -81 -37
-107 -8 -215 -69 -279 -156 -85 -117 -100 -269 -39 -406 18 -39 35 -92 38
-120 19 -151 72 -270 164 -368 92 -97 214 -154 392 -182 33 -5 41 -14 95 -101
104 -169 239 -293 359 -330 59 -17 187 -20 246 -4 40 11 43 10 98 -28 31 -22
77 -50 103 -62 70 -32 261 -245 349 -387 8 -13 17 -23 22 -23 10 0 157 99 157
105 0 3 -24 51 -52 108 -29 56 -54 105 -56 108 -1 3 43 11 99 17 113 13 222
47 279 87 45 31 84 87 116 165 l22 55 73 7 c174 18 307 136 354 313 20 77 19
225 -1 323 -25 123 -107 314 -178 417 -16 22 -23 52 -27 117 -5 71 -13 101
-42 163 -47 97 -126 181 -215 228 -82 43 -132 57 -226 63 -52 3 -91 12 -137
33 -260 117 -639 157 -965 100 -52 -9 -72 -8 -111 5 -63 20 -156 27 -218 16z
m218 -74 c35 -14 47 -14 120 -2 45 8 84 13 86 10 6 -5 80 -393 81 -419 0 -26
-150 -375 -161 -375 -8 0 -199 168 -199 176 0 1 27 13 60 25 53 19 60 24 54
43 -4 12 -8 23 -10 25 -1 2 -37 -8 -80 -23 l-77 -26 -175 158 c-96 86 -186
166 -200 178 l-26 21 22 34 c11 19 34 47 51 63 l30 29 145 -52 c79 -28 149
-51 154 -51 9 0 22 23 22 40 0 4 -55 27 -122 50 -68 24 -127 47 -132 51 -10 9
59 45 111 59 55 13 201 6 246 -14z m680 8 c19 -4 34 -19 48 -46 l20 -40 -38
-45 c-60 -71 -60 -71 -40 -90 18 -17 20 -16 56 25 20 23 41 42 46 42 6 0 36
-51 67 -114 l57 -114 53 -11 c29 -5 91 -17 137 -26 70 -14 85 -15 92 -3 21 32
4 42 -112 63 -63 12 -121 25 -128 29 -6 4 -45 75 -86 157 -61 121 -72 149 -57
149 34 0 163 -40 254 -80 75 -32 105 -40 154 -40 63 0 174 -28 208 -53 18 -13
16 -24 -55 -310 -40 -164 -79 -297 -85 -297 -6 0 -109 45 -230 101 l-219 101
-81 -26 c-44 -14 -86 -26 -92 -26 -8 0 -12 23 -12 73 0 74 0 74 -37 101 l-38
26 -18 -21 c-18 -22 -17 -23 13 -42 30 -19 31 -21 28 -90 l-3 -70 -189 -64
c-104 -34 -192 -61 -194 -58 -3 2 30 85 73 184 77 180 77 180 66 231 -19 90
-19 90 49 90 57 0 60 1 60 25 0 23 -3 24 -67 27 l-68 3 -23 115 c-12 63 -20
121 -17 129 5 11 38 13 193 8 103 -4 200 -9 215 -13z m-1138 -350 l117 -106
-6 -47 c-3 -25 -8 -86 -12 -134 l-6 -88 -221 -169 c-154 -118 -224 -166 -229
-157 -15 22 -39 111 -49 181 -5 40 -23 96 -41 133 -26 54 -31 76 -32 141 -1
52 5 92 17 125 10 26 21 47 23 47 2 0 36 -21 74 -46 l70 -47 0 -69 0 -69 28 3
c27 3 27 3 27 83 l0 80 -70 48 c-38 27 -77 53 -85 58 -12 7 -8 16 25 45 52 47
88 65 155 80 93 21 90 22 215 -92z m2049 -23 c33 -61 56 -151 56 -218 0 -43 6
-63 34 -105 49 -78 77 -136 68 -142 -5 -3 -58 -23 -118 -44 l-109 -39 -93 41
c-50 22 -92 46 -92 53 0 7 29 131 65 275 36 145 67 274 71 287 5 24 6 23 49
-19 23 -23 55 -63 69 -89z m-1654 -333 c107 -96 250 -218 318 -272 112 -89
123 -100 118 -124 -3 -15 -15 -83 -26 -151 l-21 -125 63 -55 c138 -122 136
-120 108 -120 -14 0 -92 8 -175 17 l-150 17 -3 55 -3 55 -99 85 -100 85 85 3
85 3 0 31 0 31 -114 -6 -113 -7 -41 33 c-22 17 -74 61 -115 97 l-76 65 0 55
c0 30 6 134 14 230 8 96 15 181 15 189 0 17 -20 34 230 -191z m989 -157 c61
-101 111 -186 111 -190 -1 -3 -86 -64 -190 -134 -171 -115 -189 -130 -180
-148 14 -26 24 -24 75 11 24 17 48 30 54 30 6 0 11 -16 11 -35 0 -31 3 -35 25
-35 24 0 25 3 25 59 l0 59 106 72 c58 40 107 70 109 68 28 -31 345 -576 345
-593 0 -40 -72 -167 -108 -192 -41 -27 -128 -61 -180 -69 -33 -5 -39 -3 -49
18 -7 12 -30 56 -52 96 l-41 73 57 60 c31 32 54 60 52 62 -2 1 -12 9 -22 16
-16 13 -23 9 -67 -34 l-49 -48 -18 31 c-10 17 -25 44 -34 60 -16 28 -20 29
-130 41 -63 6 -124 14 -137 17 -20 4 -243 195 -250 214 -2 4 8 74 22 156 14
81 24 149 23 149 -19 12 -223 179 -225 184 -1 4 51 24 115 44 l118 37 59 -42
c44 -30 63 -38 74 -31 28 17 24 30 -17 59 -22 16 -41 32 -41 35 0 9 284 97
291 90 3 -3 56 -89 118 -190z m94 108 c61 -27 115 -53 119 -57 4 -4 17 -53 29
-110 l22 -103 60 -30 c32 -17 60 -29 62 -27 1 2 7 12 13 23 9 18 5 24 -38 48
-46 26 -48 29 -63 94 -8 38 -14 69 -13 71 2 1 68 -27 147 -64 79 -36 153 -66
164 -66 11 0 69 19 129 41 60 23 114 41 121 41 6 0 17 -11 23 -26 11 -22 8
-31 -29 -85 -39 -57 -40 -61 -22 -74 26 -20 29 -19 53 20 12 19 25 35 29 35
21 0 46 -194 37 -282 -11 -100 -14 -101 -102 -20 l-77 72 -230 2 -230 3 -149
245 c-161 264 -181 300 -173 300 3 0 56 -23 118 -51z m-1398 -151 l-6 -103
223 -192 c123 -106 235 -204 251 -218 l27 -26 0 -179 c0 -117 -4 -180 -10
-180 -6 0 -33 11 -60 25 -49 25 -190 148 -190 166 0 5 15 17 34 26 31 14 33
18 24 39 -13 29 -17 29 -63 7 -34 -16 -36 -16 -50 3 -33 45 -80 144 -105 224
-24 77 -29 85 -50 82 -13 -1 -25 -4 -27 -6 -2 -2 6 -32 17 -67 11 -35 20 -65
20 -67 0 -9 -104 14 -165 36 -87 31 -158 76 -211 134 -79 86 -90 67 138 242
112 86 204 156 206 156 2 0 0 -46 -3 -102z m2116 -474 c41 -36 75 -71 77 -78
4 -19 -55 -101 -94 -131 -53 -41 -126 -65 -194 -65 l-59 0 -36 61 c-19 33 -35
61 -35 63 0 2 27 6 60 10 56 7 60 9 60 33 l0 26 -80 -5 -80 -5 -41 71 c-23 39
-44 74 -46 79 -2 4 86 7 195 7 l200 0 73 -66z m-1191 -235 c162 -17 301 -36
307 -41 12 -10 173 -300 173 -312 0 -3 -36 -6 -80 -6 -44 0 -80 -3 -80 -7 0
-5 30 -64 66 -133 l65 -125 -28 -22 c-15 -13 -33 -23 -40 -23 -6 0 -49 48 -94
108 -45 59 -118 142 -160 185 l-78 79 30 61 c30 57 30 61 13 74 -10 7 -21 13
-26 13 -4 0 -21 -29 -37 -65 l-30 -66 -29 15 c-16 8 -50 31 -75 50 l-46 35
-72 -15 c-40 -8 -91 -14 -113 -12 l-41 3 -3 124 -3 123 43 -6 c24 -3 176 -20
338 -37z"/>
</g>
</svg>
