<?xml version="1.0" standalone="no"?>
<!DOCTYPE svg PUBLIC "-//W3C//DTD SVG 20010904//EN"
 "http://www.w3.org/TR/2001/REC-SVG-20010904/DTD/svg10.dtd">
<svg version="1.0" xmlns="http://www.w3.org/2000/svg"
 width="312.000000pt" height="274.000000pt" viewBox="0 0 312.000000 274.000000"
 preserveAspectRatio="xMidYMid meet">
<g transform="translate(0.000000,274.000000) scale(0.100000,-0.100000)"
fill="#000000" stroke="none">
<path d="M803 2495 c-120 -27 -257 -124 -307 -218 -18 -33 -22 -35 -85 -39
-127 -9 -254 -96 -311 -211 -61 -125 -61 -228 -1 -366 17 -38 31 -83 31 -99 0
-53 39 -182 77 -255 86 -163 236 -264 445 -297 l78 -13 40 -72 c81 -148 215
-287 327 -337 78 -34 146 -42 247 -29 l92 13 69 -46 c38 -25 74 -46 80 -46 39
0 188 -157 307 -325 29 -41 59 -77 66 -79 17 -8 152 80 152 99 0 9 -22 60 -50
115 -27 55 -50 101 -50 103 0 2 35 7 78 10 151 12 297 68 346 132 28 36 86
152 86 171 0 7 30 13 78 16 177 11 308 130 358 328 12 49 15 91 11 170 -9 167
-57 314 -162 502 -45 79 -55 104 -55 145 -2 260 -241 482 -519 483 -19 0 -78
18 -132 40 -105 43 -247 81 -374 101 -114 18 -397 15 -526 -5 -94 -15 -110
-15 -147 -2 -64 23 -177 28 -249 11z m203 -56 c24 -6 46 -14 48 -18 2 -3 -17
-105 -43 -226 -56 -258 -30 -233 -249 -237 l-144 -3 -50 129 -49 130 38 54
c96 140 285 212 449 171z m523 4 c0 -5 -99 -91 -220 -193 -238 -200 -268 -224
-273 -219 -2 2 15 89 38 194 l41 189 40 9 c107 22 376 36 374 20z m273 -23
c107 -21 273 -72 302 -93 15 -11 -31 -33 -326 -157 -189 -79 -365 -151 -393
-161 -61 -21 -316 -38 -299 -20 6 6 127 110 270 231 297 251 262 236 446 200z
m563 -146 c67 -17 152 -62 138 -73 -6 -6 -494 -183 -573 -209 -8 -2 52 63 135
147 149 151 150 151 195 151 25 0 73 -7 105 -16z m-437 -191 l-136 -136 -119
12 c-66 7 -135 16 -154 21 l-34 8 40 16 c22 10 150 64 285 120 135 57 247 101
250 99 2 -2 -57 -65 -132 -140z m-1475 87 c-7 -56 -105 -598 -111 -611 -6 -14
-21 -7 -92 40 -113 74 -135 115 -135 246 0 71 5 100 22 137 29 63 97 134 155
164 82 42 165 54 161 24z m2146 -49 c41 -51 78 -134 91 -201 14 -74 13 -80
-12 -80 -44 0 -723 83 -731 90 -6 5 587 226 615 229 3 1 20 -17 37 -38z
m-2043 -161 c13 -36 42 -112 64 -170 37 -96 42 -119 56 -274 8 -93 14 -175 12
-182 -2 -8 -55 21 -148 80 -126 81 -145 97 -142 117 4 42 93 533 99 549 6 17
20 -12 59 -120z m601 -46 c-43 -23 -430 -184 -443 -184 -13 0 -70 147 -61 156
3 3 115 14 249 23 314 24 289 23 255 5z m436 -273 c125 -156 226 -285 224
-287 -2 -2 -109 30 -238 72 -129 42 -353 114 -499 161 -146 47 -273 90 -284
95 -15 8 34 33 260 128 154 65 286 117 294 117 8 -1 117 -130 243 -286z m235
244 c207 -25 383 -48 390 -50 9 -3 12 -91 12 -395 0 -214 -3 -390 -8 -390 -8
0 -135 112 -241 214 -55 52 -541 646 -541 661 0 7 -31 10 388 -40z m704 -86
c130 -16 175 -25 185 -38 6 -9 37 -63 67 -121 103 -198 147 -382 126 -530 -6
-40 -14 -79 -19 -87 -6 -11 -81 91 -282 379 -151 216 -278 399 -283 406 -10
16 3 16 206 -9z m52 -458 c305 -438 287 -400 214 -473 -65 -65 -194 -111 -263
-94 -15 4 -78 54 -141 112 l-114 106 0 386 c0 334 2 384 14 372 8 -8 138 -192
290 -409z m-1500 188 c187 -61 345 -115 350 -120 6 -5 -130 -77 -325 -174
l-334 -165 -7 47 c-4 27 -14 136 -23 243 -8 107 -18 214 -21 238 -4 29 -2 42
7 42 6 0 165 -50 353 -111z m-627 -127 l240 -153 7 -52 c3 -29 6 -71 6 -94 0
-50 -6 -52 -108 -28 -215 51 -379 231 -408 445 -6 45 -5 51 8 44 8 -5 123 -78
255 -162z m1256 -78 c81 -27 146 -53 143 -59 -4 -11 -302 -447 -343 -503 -14
-18 -27 -31 -30 -29 -4 5 43 552 53 615 3 20 10 32 17 29 7 -2 78 -26 160 -53z
m-236 -11 c-3 -21 -18 -180 -33 -353 -19 -223 -31 -319 -41 -330 -11 -12 -39
-15 -126 -15 -109 0 -114 1 -177 35 -77 42 -178 140 -242 236 -49 73 -74 121
-67 128 12 11 666 335 678 335 10 1 12 -9 8 -36z m563 -180 c47 -42 128 -115
180 -163 52 -48 129 -118 170 -155 86 -79 88 -85 40 -182 -37 -75 -75 -106
-167 -138 -74 -26 -261 -52 -273 -38 -4 4 -15 154 -24 333 -9 179 -19 346 -22
373 -3 26 -2 47 3 47 5 0 47 -35 93 -77z m-150 40 c0 -10 9 -184 21 -388 l21
-370 60 -113 c33 -62 58 -114 57 -116 -2 -1 -20 -12 -40 -24 l-36 -22 -86 113
c-114 150 -207 241 -287 282 -36 19 -78 44 -93 57 l-28 23 198 288 c108 158
201 287 205 287 4 0 8 -8 8 -17z"/>
</g>
</svg>
