<svg version="1.0" xmlns="http://www.w3.org/2000/svg" width="434.667" height="384" viewBox="0 0 326 288"><path d="M92.4 35.4c-3.4.8-8.4 2.6-11.1 4-6.2 3.1-15.3 11.3-18.9 17-2.7 4.3-2.8 4.3-9.5 4.9-13.1 1.1-25.4 9.8-31.5 22.2-2.7 5.5-2.9 6.9-2.9 17 0 10.3.2 11.4 3.1 17.5 1.9 3.9 3.7 9.7 4.4 14.5 2.4 15.6 7.9 26.4 18.5 36.4 9.1 8.4 20.5 13.5 35.7 15.6 4.5.7 4.7.9 8.9 7.8 12.8 21.6 27.6 34.1 43.6 36.9 5.8 1 8.3.9 14.9-.4l7.9-1.5 4.5 3.2c2.5 1.8 7.3 4.6 10.6 6.3 7.3 3.7 16.3 13 28.6 29.7 4.6 6.3 8.7 11.4 9.1 11.4 1.3.1 15.7-9.3 15.7-10.3 0-.5-2.5-5.6-5.5-11.3-3-5.7-5.5-10.5-5.5-10.7 0-.2 3.5-.6 7.8-.9 9.5-.8 17.8-2.9 25.9-6.7 7.1-3.3 11.7-8.7 15.7-18.5l2.4-6 7.4-.6c13.7-1.1 25.3-9.1 31.5-21.7 4.5-8.9 5.6-15.7 5-29.2-.4-9.3-1.1-13.4-3.7-21.5-3.3-10.1-8.4-21.3-14.5-31.5-2.7-4.7-3.3-6.8-3.8-13.8-.7-11.6-5.2-20.9-14.4-30.1-9.7-9.6-22.7-15-36.3-15.1-3 0-7.5-1.3-13.5-3.9-9.7-4.2-25.2-8.4-38-10.3-11.5-1.7-39.8-1.4-52.4.6-9.3 1.4-10.8 1.4-14.8.1-6.5-2.2-17.8-2.7-24.9-1.1zm23.5 6.5c4.9 1.7 6 1.8 13 .5 4.2-.8 14-1.7 21.8-2.1l14.2-.6-.5 4.9c-.7 6.1.9 18 3.6 26.1 1.6 5.1 1.9 7.3 1.2 11.6-.5 3-.5 8.9 0 13.2.4 4.3.7 7.9.6 8.1-.2.1-2.7-.3-5.7-.9-4-.7-8.1-.7-15.4.1-15.9 1.9-17.2-.1-12.1-19.9 3-11.5 2.5-15.5-2.2-20-2.8-2.6-5.4-2.8-26.5-1.9-10.8.4-16.3-1.9-21.5-8.9-4-5.4-4.1-6.6-1.1-8.2 7.7-4.2 21.6-5.1 30.6-2zm77.6 1.3c10.2 2 20.2 5 28.9 8.7 4.4 2 4.8 2.3 4.1 4.9-1 4.1-5.2 10.1-8.7 12.2-5.2 3.1-9.7 3.3-22.2.9-10.8-2-11.8-2.1-16.3-.6-2.6.9-5 1.4-5.4 1.1-2.5-1.5-5.3-27.7-3.2-29.8.9-.9 10.7.2 22.8 2.6zM81.7 54.9c2.6 3.6 5.6 6.4 9.3 8.5 5 2.8 6.3 3.1 14.5 3.1 5 0 12.2-.3 16.1-.5 12-.8 13.6 2.7 8.9 18.9-3 10.3-3.1 14.6-.5 18.9 2.9 4.8 5.7 5.4 19.7 4.6 11.8-.6 20.4.4 21.8 2.6.3.4 1 4.2 1.6 8.5 2.1 13.8-1.1 15.6-14.6 8-12.7-7.2-21.8-11.4-25-11.5-7.4-.5-8.8 0-12.5 3.9l-3.7 3.8-2.6-9.3c-3.4-12.2-7.1-19.7-12-24.1-8.1-7.3-16.2-8.3-31.1-3.9-9.5 2.8-17.4 3.3-25.6 1.5-5.6-1.2-5.5-.9-4.3-11.9.6-6 .8-6.3 4.2-7.8 2-.8 6.7-1.6 10.5-1.8l6.9-.3 2.4-4.3c2.6-4.6 10.3-13 11.5-12.6.4.2 2.4 2.7 4.5 5.7zm173.6 4.9c12.6 5.8 23.9 19.5 25.4 31.2.6 4.2.5 4.3-1.8 3.6-1.3-.3-5.8-.9-10.1-1.3-6.8-.5-7.7-.8-8.7-3-5-10.9-15.5-16.2-23.7-12-1.6.8-7.2 5.9-12.4 11.2-9 9.3-15.1 13.4-19.5 13.5-7.4 0-16.9-6.9-23.7-17.4-4.5-6.9-4.7-8.9-1.3-10.4 3.4-1.5 7.5-1.5 15.5.3 18.5 4.1 28.5.3 35.2-13.2l3.2-6.6 7.6.6c5.5.3 9.4 1.3 14.3 3.5zM247 83.5c3 1.5 8 7.4 8 9.3 0 .6-1.5 1.4-3.2 1.7-10.1 2.2-20.4 10.9-30.7 26.1-13.9 20.4-17.7 20.9-29.2 3.8-3.7-5.6-8.8-11.9-11.2-13.9-4.1-3.4-4.5-4.2-5.6-10.5-1.9-11.5-1.1-16.6 1.6-10.7 2 4.4 11.4 13.6 16.5 16.1 6.8 3.4 14.3 3.5 20.6.4 2.6-1.4 8-6.1 12.9-11.3 12.1-12.8 14.4-14.1 20.3-11zM35.4 91.9c.2.9.7 3.6 1 6.1 1.4 10.3 7.6 14.9 17.5 13.2 8.5-1.5 10.7.5 9.5 8.4-.6 4.2-.8 4.4-5.8 5.8-6 1.8-15.8 7.5-20.4 11.9-4.1 3.9-4.6 3.3-6.2-7.7-.7-5.1-2.3-10.5-4.3-14.5-2.7-5.5-3.2-7.6-3.2-14 0-4.2.6-9.3 1.3-11.3l1.3-3.7 4.5 2.1c2.4 1.2 4.6 2.9 4.8 3.7zm57.4-1.3c9.7 4 14.5 13.3 19.7 38.1 1.7 8.3 1.4 9.8-2.4 11.1-3.6 1.3-7.3-.1-18.7-6.5-8.9-5.1-14.5-7.6-19.6-8.7-2.7-.6-2.8-.9-2.8-7.2 0-6-.3-6.8-3-9.6-3.1-3-3.1-3-11.3-2.3-7.3.6-8.5.4-9.9-1.2-1.7-1.9-4.3-10.1-3.5-11 .3-.2 3.9 0 8 .7 8.2 1.2 16 .4 26.2-3 7.4-2.3 12.4-2.5 17.3-.4zM259.7 104c1.6 6.3 1.6 15.8-.1 21.4-2.4 7.8-5.4 10.8-17.8 17.2-8.1 4.2-12.9 7.5-17 11.6l-5.6 5.6-9.1-2.9c-18.2-5.8-45.9-8.7-53.5-5.5-8.8 3.7-8.7 10.7.1 22.8 4 5.6 3.3 6.5-4.3 5.4-14.7-2-24.7-13.2-30.4-33.9-1.9-7-2-8.3-.9-13.5 1.5-6.5 5.3-11.2 9.2-11.2 4 0 9.9 2.5 20.2 8.4 12.7 7.3 18.5 9.3 22.6 7.6 4.2-1.8 5.9-5.7 5.9-13.6 0-8.2.3-8 9.3 5.4 7 10.4 10.4 13.2 16.2 13.2 7 0 11.1-3.6 21.8-19.1 7.9-11.5 15.8-19 23-21.8 7.5-2.9 9-2.5 10.4 2.9zm20.6-3.5c.9.4 1.7 1.7 1.7 3 0 1.2 2.1 5.8 4.7 10 5.9 9.8 12 23.9 14.3 33 1 3.8 1.6 7.2 1.5 7.4-.2.2-2.6-.2-5.3-.9-6.2-1.6-11.7-.6-15 2.7l-2.6 2.6-1.5-2.4c-3.5-5.4-8.8-9.9-11.8-9.9-3.7 0-5.3 1.7-9.3 10.3-3.8 8-7.2 10.7-14 10.7-5.3 0-17-3.8-17-5.6 0-2.3 9.1-9.3 18.3-14 5.1-2.5 10.6-5.7 12.2-6.9 7.2-5.3 11.5-19.7 9.5-31.9-.6-3.6-1.3-7.3-1.7-8.2-.6-1.6.1-1.7 6.8-1.1 4.1.3 8.2.8 9.2 1.2zm-220 33.2c-1.5 8-.8 15 2.1 19.3 3.7 5.6 9.3 7.9 21.3 9.1 10 .9 13.7 2.4 14.8 5.9.8 2.5-1.8 11.5-4.4 15.4l-1.9 2.9-1.6-3c-1.6-3.2-4-4.3-9.1-4.3-9.3 0-24.4-6.4-32.6-13.8C43.4 160.3 36 149.9 36 147c0-3.2 19.6-16.9 24.3-17 .4 0 .5 1.7 0 3.7zm16.5-1.8c2.7 1.1 8.7 4.2 13.3 6.9 12.2 7.2 17.3 8.4 23.9 5.8 1.2-.5 2.1 1 3.9 6.6 5 15.6 12.7 25.8 23.6 31 5.3 2.5 7 2.8 14.9 2.7 4.8-.1 9.1.2 9.5.7 4 5.6 11.1 16.9 11.1 17.9 0 .8-4-.2-11.7-2.8-21.5-7.4-34.7-6.3-49 3.9l-7.2 5.2-3.4-3.7c-3.6-4-9.7-12.6-9.7-13.6 0-.4 1.7-4.1 3.7-8.2 2.6-5.2 3.8-9.2 4.1-13.2.4-5 .1-6.1-2.3-8.9-3-3.6-6.5-4.7-17.9-5.7-4.4-.3-9.4-1.2-11.2-2-6.5-2.7-9-11.1-6.3-20.8 1.2-4.4 3.2-4.7 10.7-1.8zm197.3 28.2l3 4.7-2 8.1c-2.3 9.3-3.9 12.7-7.6 16.1-4.6 4.3-9.8 3.5-25-3.7-7.2-3.4-15.6-6.9-18.8-7.8-3.1-.9-5.7-2.2-5.7-2.8 0-.7.9-2.7 2-4.5 1.6-2.5 2.5-3.2 3.8-2.7 20.4 8.6 30.7 6.6 37.4-7.4 4.6-9.5 4.7-9.6 7.5-6.9 1.3 1.2 3.7 4.3 5.4 6.9zm-82.5-2c9.2 1.7 23.2 5.5 24.3 6.5.2.1-.5 2.2-1.4 4.6l-1.8 4.3-14.1.1c-11.2 0-15.9.4-22.9 2.2-4.9 1.2-9 2.2-9.1 2.2-.7 0-9.7-13.1-10.5-15.2-1.1-3 .1-5.2 3.9-6.8 3.4-1.4 18.8-.4 31.6 2.1zm108.4 1.7l3.5 1.7-.1 7.6c-.1 4.1-.7 9.3-1.4 11.5-1.5 4.8-5.2 12.4-5.9 12.4-.3-.1-3.3-6.5-6.7-14.4-5.7-13.4-6-14.5-4.7-17 2.5-4.8 7.7-5.4 15.3-1.8zm-13.5 25.6c2.6 6.3 4.5 12.2 4.3 13.2-.2 1.2-3 3.3-7.2 5.4-6.3 3.2-7.6 3.5-15.1 3.4h-8.1l-1.7 5.5c-1.9 6.7-7.3 15.7-10.7 18.3-6.7 4.9-30.6 9.8-40.2 8.2-2.1-.3-3.8-.3-3.8 0 0 .4 3 6.5 6.6 13.7 3.6 7.2 6.4 13.2 6.2 13.3-5 3.5-7 4.8-7.2 4.5-6.7-9.1-11.3-15-16.9-21.6l-6.9-8.3 1.2-5.1c.8-3.1 1.1-8.6.8-13.9l-.5-8.8 6.3-.4c11.7-.7 17.7-7.4 20.9-23.3.9-4.4 1.7-8.1 1.9-8.2.6-.7 15 4.9 26.1 10.1 9.8 4.5 13 5.6 17.3 5.6 6 0 8.3-.9 13-5.3 3.1-3 7.2-11.8 7.2-15.7 0-4.3 2-1.5 6.5 9.4zm-77.2-5.8c1.2.4 1.2 1.7-.3 8.8-.9 4.6-2.6 9.9-3.6 11.7-3.2 5.6-13.2 9.4-18.9 7.3-.9-.4-3.1-3.6-5-7.3-1.8-3.6-4.9-8.8-6.9-11.6-2-2.7-3.2-5.3-2.8-5.6 2.6-2.6 32.6-5.2 37.5-3.3zm-43 27.2c11.7 3.9 14.1 5.1 15 7.2 1.1 2.8 1.5 20.5.4 21.6-.9.9-11.8-4.8-19-10.1l-5.7-4.2-6.3 1.4c-12.6 3-25.9.4-34.7-6.7l-2.5-2 3.5-3.1c4.2-3.7 11.6-7.6 16.7-8.9 7.3-1.8 17.7-.3 32.6 4.8z"/></svg>