<svg version="1.0" xmlns="http://www.w3.org/2000/svg" width="416" height="365.333" viewBox="0 0 312 274"><path d="M80.3 24.5c-12 2.7-25.7 12.4-30.7 21.8-1.8 3.3-2.2 3.5-8.5 3.9-12.7.9-25.4 9.6-31.1 21.1-6.1 12.5-6.1 22.8-.1 36.6 1.7 3.8 3.1 8.3 3.1 9.9 0 5.3 3.9 18.2 7.7 25.5 8.6 16.3 23.6 26.4 44.5 29.7l7.8 1.3 4 7.2c8.1 14.8 21.5 28.7 32.7 33.7 7.8 3.4 14.6 4.2 24.7 2.9l9.2-1.3 6.9 4.6c3.8 2.5 7.4 4.6 8 4.6 3.9 0 18.8 15.7 30.7 32.5 2.9 4.1 5.9 7.7 6.6 7.9 1.7.8 15.2-8 15.2-9.9 0-.9-2.2-6-5-11.5-2.7-5.5-5-10.1-5-10.3 0-.2 3.5-.7 7.8-1 15.1-1.2 29.7-6.8 34.6-13.2 2.8-3.6 8.6-15.2 8.6-17.1 0-.7 3-1.3 7.8-1.6 17.7-1.1 30.8-13 35.8-32.8 1.2-4.9 1.5-9.1 1.1-17-.9-16.7-5.7-31.4-16.2-50.2-4.5-7.9-5.5-10.4-5.5-14.5-.2-26-24.1-48.2-51.9-48.3-1.9 0-7.8-1.8-13.2-4-10.5-4.3-24.7-8.1-37.4-10.1-11.4-1.8-39.7-1.5-52.6.5-9.4 1.5-11 1.5-14.7.2-6.4-2.3-17.7-2.8-24.9-1.1zm20.3 5.6c2.4.6 4.6 1.4 4.8 1.8.2.3-1.7 10.5-4.3 22.6-5.6 25.8-3 23.3-24.9 23.7l-14.4.3-5-12.9-4.9-13 3.8-5.4c9.6-14 28.5-21.2 44.9-17.1zm52.3-.4c0 .5-9.9 9.1-22 19.3-23.8 20-26.8 22.4-27.3 21.9-.2-.2 1.5-8.9 3.8-19.4l4.1-18.9 4-.9c10.7-2.2 37.6-3.6 37.4-2zm27.3 2.3c10.7 2.1 27.3 7.2 30.2 9.3 1.5 1.1-3.1 3.3-32.6 15.7-18.9 7.9-36.5 15.1-39.3 16.1-6.1 2.1-31.6 3.8-29.9 2 .6-.6 12.7-11 27-23.1 29.7-25.1 26.2-23.6 44.6-20zm56.3 14.6c6.7 1.7 15.2 6.2 13.8 7.3-.6.6-49.4 18.3-57.3 20.9-.8.2 5.2-6.3 13.5-14.7C221.4 45 221.5 45 226 45c2.5 0 7.3.7 10.5 1.6zm-43.7 19.1l-13.6 13.6-11.9-1.2c-6.6-.7-13.5-1.6-15.4-2.1l-3.4-.8 4-1.6c2.2-1 15-6.4 28.5-12 13.5-5.7 24.7-10.1 25-9.9.2.2-5.7 6.5-13.2 14zM45.3 57c-.7 5.6-10.5 59.8-11.1 61.1-.6 1.4-2.1.7-9.2-4-11.3-7.4-13.5-11.5-13.5-24.6 0-7.1.5-10 2.2-13.7 2.9-6.3 9.7-13.4 15.5-16.4 8.2-4.2 16.5-5.4 16.1-2.4zm214.6 4.9C264 67 267.7 75.3 269 82c1.4 7.4 1.3 8-1.2 8-4.4 0-72.3-8.3-73.1-9-.6-.5 58.7-22.6 61.5-22.9.3-.1 2 1.7 3.7 3.8zM55.6 78c1.3 3.6 4.2 11.2 6.4 17 3.7 9.6 4.2 11.9 5.6 27.4.8 9.3 1.4 17.5 1.2 18.2-.2.8-5.5-2.1-14.8-8-12.6-8.1-14.5-9.7-14.2-11.7.4-4.2 9.3-53.3 9.9-54.9.6-1.7 2 1.2 5.9 12zm60.1 4.6c-4.3 2.3-43 18.4-44.3 18.4-1.3 0-7-14.7-6.1-15.6.3-.3 11.5-1.4 24.9-2.3 31.4-2.4 28.9-2.3 25.5-.5zm43.6 27.3c12.5 15.6 22.6 28.5 22.4 28.7-.2.2-10.9-3-23.8-7.2S122.6 120 108 115.3c-14.6-4.7-27.3-9-28.4-9.5-1.5-.8 3.4-3.3 26-12.8 15.4-6.5 28.6-11.7 29.4-11.7.8.1 11.7 13 24.3 28.6zm23.5-24.4c20.7 2.5 38.3 4.8 39 5 .9.3 1.2 9.1 1.2 39.5 0 21.4-.3 39-.8 39-.8 0-13.5-11.2-24.1-21.4-5.5-5.2-54.1-64.6-54.1-66.1 0-.7-3.1-1 38.8 4zm70.4 8.6c13 1.6 17.5 2.5 18.5 3.8.6.9 3.7 6.3 6.7 12.1 10.3 19.8 14.7 38.2 12.6 53-.6 4-1.4 7.9-1.9 8.7-.6 1.1-8.1-9.1-28.2-37.9-15.1-21.6-27.8-39.9-28.3-40.6-1-1.6.3-1.6 20.6.9zm5.2 45.8c30.5 43.8 28.7 40 21.4 47.3-6.5 6.5-19.4 11.1-26.3 9.4-1.5-.4-7.8-5.4-14.1-11.2L228 174.8v-38.6c0-33.4.2-38.4 1.4-37.2.8.8 13.8 19.2 29 40.9zm-150-18.8c18.7 6.1 34.5 11.5 35 12 .6.5-13 7.7-32.5 17.4L77.5 167l-.7-4.7c-.4-2.7-1.4-13.6-2.3-24.3-.8-10.7-1.8-21.4-2.1-23.8-.4-2.9-.2-4.2.7-4.2.6 0 16.5 5 35.3 11.1zm-62.7 12.7l24 15.3.7 5.2c.3 2.9.6 7.1.6 9.4 0 5-.6 5.2-10.8 2.8-21.5-5.1-37.9-23.1-40.8-44.5-.6-4.5-.5-5.1.8-4.4.8.5 12.3 7.8 25.5 16.2zm125.6 7.8c8.1 2.7 14.6 5.3 14.3 5.9-.4 1.1-30.2 44.7-34.3 50.3-1.4 1.8-2.7 3.1-3 2.9-.4-.5 4.3-55.2 5.3-61.5.3-2 1-3.2 1.7-2.9.7.2 7.8 2.6 16 5.3zm-23.6 1.1c-.3 2.1-1.8 18-3.3 35.3-1.9 22.3-3.1 31.9-4.1 33-1.1 1.2-3.9 1.5-12.6 1.5-10.9 0-11.4-.1-17.7-3.5-7.7-4.2-17.8-14-24.2-23.6-4.9-7.3-7.4-12.1-6.7-12.8 1.2-1.1 66.6-33.5 67.8-33.5 1-.1 1.2.9.8 3.6zm56.3 18c4.7 4.2 12.8 11.5 18 16.3 5.2 4.8 12.9 11.8 17 15.5 8.6 7.9 8.8 8.5 4 18.2-3.7 7.5-7.5 10.6-16.7 13.8-7.4 2.6-26.1 5.2-27.3 3.8-.4-.4-1.5-15.4-2.4-33.3-.9-17.9-1.9-34.6-2.2-37.3-.3-2.6-.2-4.7.3-4.7s4.7 3.5 9.3 7.7zm-15-4c0 1 .9 18.4 2.1 38.8l2.1 37 6 11.3c3.3 6.2 5.8 11.4 5.7 11.6-.2.1-2 1.2-4 2.4l-3.6 2.2-8.6-11.3c-11.4-15-20.7-24.1-28.7-28.2-3.6-1.9-7.8-4.4-9.3-5.7l-2.8-2.3 19.8-28.8c10.8-15.8 20.1-28.7 20.5-28.7.4 0 .8.8.8 1.7z"/></svg>