<svg xmlns="http://www.w3.org/2000/svg" xmlns:xlink="http://www.w3.org/1999/xlink" height="400" width="1280">
  <g opacity="1">
    <g opacity="1">
      <rect fill="rgb(245,245,245)" fill-opacity="1" opacity="1" x="0" y="0" width="1280" height="400"/>
    </g>
    <g opacity="1">
      <text font-size="0" transform="translate(100, 330)">
        <tspan font-size="20" font-family="Helvetica Neue" font-weight="400" style="white-space: pre;text-transform: none" fill="rgb(34,34,34)" x="0" y="19">Проживание оплачивается отдельно, популярные варианты представлены ниже.</tspan>
      </text>
    </g>
    <g opacity="1">
      <path fill="rgb(243,202,62)" fill-opacity="1" opacity="1" fill-rule="evenodd" d="M1007.9999999999992 130L1156.999999999999 130C1161.4153201959512 130 1164.999999999999 133.584679804048 1164.999999999999 138L1164.999999999999 287C1164.999999999999 291.415320195952 1161.4153201959512 295 1156.999999999999 295L1007.9999999999992 295C1003.5846798040473 295 999.9999999999992 291.415320195952 999.9999999999992 287L999.9999999999992 138C999.9999999999992 133.584679804048 1003.5846798040473 130 1007.9999999999992 130Z"/>
    </g>
    <g opacity="1">
      <text font-size="0" transform="translate(999.9999999999991, 251)">
        <tspan font-size="20" font-family="Helvetica Neue" font-weight="900" style="white-space: pre;text-transform: none" fill="rgb(34,34,34)" x="43.53999999999999" y="19">На месте</tspan>
      </text>
    </g>
    <g opacity="1">
      <text font-size="0" transform="translate(1009.9999999999992, 193)">
        <tspan font-size="14" font-family="Helvetica Neue" font-weight="400" style="white-space: pre;text-transform: none" fill="rgb(34,34,34)" x="30.68999999999999" y="13">в бел. рублях</tspan>
        <tspan font-size="14" font-family="Helvetica Neue" font-weight="400" style="white-space: pre;text-transform: none" fill="rgb(34,34,34)" x="19.482999999999997" y="29">по курсу на день </tspan>
        <tspan font-size="14" font-family="Helvetica Neue" font-weight="400" style="white-space: pre;text-transform: none" fill="rgb(34,34,34)" x="51.235" y="45">оплаты</tspan>
      </text>
    </g>
    <g opacity="1">
      <text font-size="0" transform="translate(999.9999999999991, 151)">
        <tspan font-size="30" font-family="Helvetica Neue" font-weight="900" style="white-space: pre;text-transform: none" fill="rgb(34,34,34)" x="51.3" y="29">350$</tspan>
      </text>
    </g>
    <g opacity="1">
      <path fill="rgb(243,202,62)" fill-opacity="1" opacity="1" fill-rule="evenodd" d="M782.9999999999992 130L931.9999999999992 130C936.4153201959512 130 939.9999999999992 133.584679804048 939.9999999999992 138L939.9999999999992 287C939.9999999999992 291.415320195952 936.4153201959512 295 931.9999999999992 295L782.9999999999992 295C778.5846798040473 295 774.9999999999992 291.415320195952 774.9999999999992 287L774.9999999999992 138C774.9999999999992 133.584679804048 778.5846798040473 130 782.9999999999992 130Z"/>
    </g>
    <g opacity="1">
      <text font-size="0" transform="translate(774.9999999999992, 252)">
        <tspan font-size="20" font-family="Helvetica Neue" font-weight="900" style="white-space: pre;text-transform: none" fill="rgb(34,34,34)" x="45.089999999999996" y="19">До 01.07</tspan>
      </text>
    </g>
    <g opacity="1">
      <text font-size="0" transform="translate(784.9999999999992, 194)">
        <tspan font-size="14" font-family="Helvetica Neue" font-weight="400" style="white-space: pre;text-transform: none" fill="rgb(34,34,34)" x="30.68999999999999" y="13">в бел. рублях</tspan>
        <tspan font-size="14" font-family="Helvetica Neue" font-weight="400" style="white-space: pre;text-transform: none" fill="rgb(34,34,34)" x="19.482999999999997" y="29">по курсу на день </tspan>
        <tspan font-size="14" font-family="Helvetica Neue" font-weight="400" style="white-space: pre;text-transform: none" fill="rgb(34,34,34)" x="51.235" y="45">оплаты</tspan>
      </text>
    </g>
    <g opacity="1">
      <text font-size="0" transform="translate(774.9999999999992, 151)">
        <tspan font-size="30" font-family="Helvetica Neue" font-weight="900" style="white-space: pre;text-transform: none" fill="rgb(34,34,34)" x="51.3" y="29">325$</tspan>
      </text>
    </g>
    <g opacity="1">
      <path fill="rgb(243,202,62)" fill-opacity="1" opacity="1" fill-rule="evenodd" d="M557.9999999999992 130L706.9999999999992 130C711.4153201959512 130 714.9999999999992 133.584679804048 714.9999999999992 138L714.9999999999992 287C714.9999999999992 291.415320195952 711.4153201959512 295 706.9999999999992 295L557.9999999999992 295C553.5846798040473 295 549.9999999999992 291.415320195952 549.9999999999992 287L549.9999999999992 138C549.9999999999992 133.584679804048 553.5846798040473 130 557.9999999999992 130Z"/>
    </g>
    <g opacity="1">
      <text font-size="0" transform="translate(549.9999999999992, 251)">
        <tspan font-size="20" font-family="Helvetica Neue" font-weight="900" style="white-space: pre;text-transform: none" fill="rgb(34,34,34)" x="45.089999999999996" y="19">До 01.06</tspan>
      </text>
    </g>
    <g opacity="1">
      <text font-size="0" transform="translate(559.9999999999992, 193)">
        <tspan font-size="14" font-family="Helvetica Neue" font-weight="400" style="white-space: pre;text-transform: none" fill="rgb(34,34,34)" x="30.68999999999999" y="13">в бел. рублях</tspan>
        <tspan font-size="14" font-family="Helvetica Neue" font-weight="400" style="white-space: pre;text-transform: none" fill="rgb(34,34,34)" x="19.482999999999997" y="29">по курсу на день </tspan>
        <tspan font-size="14" font-family="Helvetica Neue" font-weight="400" style="white-space: pre;text-transform: none" fill="rgb(34,34,34)" x="51.235" y="45">оплаты</tspan>
      </text>
    </g>
    <g opacity="1">
      <text font-size="0" transform="translate(549.9999999999992, 151)">
        <tspan font-size="30" font-family="Helvetica Neue" font-weight="900" style="white-space: pre;text-transform: none" fill="rgb(34,34,34)" x="51.3" y="29">300$</tspan>
      </text>
    </g>
    <g opacity="1">
      <path fill="rgb(243,202,62)" fill-opacity="1" opacity="1" fill-rule="evenodd" d="M332.9999999999992 130L481.9999999999992 130C486.4153201959512 130 489.9999999999992 133.584679804048 489.9999999999992 138L489.9999999999992 287C489.9999999999992 291.415320195952 486.4153201959512 295 481.9999999999992 295L332.9999999999992 295C328.5846798040472 295 324.9999999999992 291.415320195952 324.9999999999992 287L324.9999999999992 138C324.9999999999992 133.584679804048 328.5846798040472 130 332.9999999999992 130Z"/>
    </g>
    <g opacity="1">
      <text font-size="0" transform="translate(324.9999999999992, 252)">
        <tspan font-size="20" font-family="Helvetica Neue" font-weight="900" style="white-space: pre;text-transform: none" fill="rgb(34,34,34)" x="45.089999999999996" y="19">До 15.03</tspan>
      </text>
    </g>
    <g opacity="1">
      <text font-size="0" transform="translate(334.9999999999992, 194)">
        <tspan font-size="14" font-family="Helvetica Neue" font-weight="400" style="white-space: pre;text-transform: none" fill="rgb(34,34,34)" x="30.68999999999999" y="13">в бел. рублях</tspan>
        <tspan font-size="14" font-family="Helvetica Neue" font-weight="400" style="white-space: pre;text-transform: none" fill="rgb(34,34,34)" x="19.482999999999997" y="29">по курсу на день </tspan>
        <tspan font-size="14" font-family="Helvetica Neue" font-weight="400" style="white-space: pre;text-transform: none" fill="rgb(34,34,34)" x="51.235" y="45">оплаты</tspan>
      </text>
    </g>
    <g opacity="1">
      <text font-size="0" transform="translate(324.9999999999992, 151)">
        <tspan font-size="30" font-family="Helvetica Neue" font-weight="900" style="white-space: pre;text-transform: none" fill="rgb(34,34,34)" x="51.3" y="29">275$</tspan>
      </text>
    </g>
    <g opacity="1">
      <path fill="rgb(243,202,62)" fill-opacity="1" opacity="1" fill-rule="evenodd" d="M107.9999999999992 130L256.9999999999992 130C261.4153201959512 130 264.9999999999992 133.584679804048 264.9999999999992 138L264.9999999999992 287C264.9999999999992 291.415320195952 261.4153201959512 295 256.9999999999992 295L107.9999999999992 295C103.5846798040472 295 99.9999999999992 291.415320195952 99.9999999999992 287L99.9999999999992 138C99.9999999999992 133.584679804048 103.5846798040472 130 107.9999999999992 130Z"/>
    </g>
    <g opacity="1">
      <text font-size="0" transform="translate(99.9999999999992, 252)">
        <tspan font-size="20" font-family="Helvetica Neue" font-weight="900" style="white-space: pre;text-transform: none" fill="rgb(34,34,34)" x="45.089999999999996" y="19">До 01.02</tspan>
      </text>
    </g>
    <g opacity="1">
      <text font-size="0" transform="translate(109.9999999999992, 194)">
        <tspan font-size="14" font-family="Helvetica Neue" font-weight="400" style="white-space: pre;text-transform: none" fill="rgb(34,34,34)" x="30.68999999999999" y="13">в бел. рублях</tspan>
        <tspan font-size="14" font-family="Helvetica Neue" font-weight="400" style="white-space: pre;text-transform: none" fill="rgb(34,34,34)" x="19.482999999999997" y="29">по курсу на день </tspan>
        <tspan font-size="14" font-family="Helvetica Neue" font-weight="400" style="white-space: pre;text-transform: none" fill="rgb(34,34,34)" x="51.235" y="45">оплаты</tspan>
      </text>
    </g>
    <g opacity="1">
      <text font-size="0" transform="translate(99.9999999999992, 151)">
        <tspan font-size="30" font-family="Helvetica Neue" font-weight="900" style="white-space: pre;text-transform: none" fill="rgb(34,34,34)" x="51.3" y="29">250$</tspan>
      </text>
    </g>
    <g opacity="1">
      <text font-size="0" transform="translate(100, 30)">
        <tspan font-size="60" font-family="Helvetica Neue" font-weight="700" style="white-space: pre;text-transform: none" fill="rgb(34,34,34)" x="0" y="58">Стоимость</tspan>
      </text>
    </g>
  </g>
</svg>