<?xml version="1.0" standalone="no"?>
<!DOCTYPE svg PUBLIC "-//W3C//DTD SVG 20010904//EN"
 "http://www.w3.org/TR/2001/REC-SVG-20010904/DTD/svg10.dtd">
<svg version="1.0" xmlns="http://www.w3.org/2000/svg"
 width="700.000000pt" height="700.000000pt" viewBox="0 0 700.000000 700.000000"
 preserveAspectRatio="xMidYMid meet">
<metadata>
Created by potrace 1.11, written by Peter Selinger 2001-2013
</metadata>
<g transform="translate(0.000000,700.000000) scale(0.100000,-0.100000)"
fill="#000000" stroke="none">
<path d="M3450 6866 c-137 -38 -250 -129 -308 -248 -116 -237 -6 -544 235
-655 176 -81 378 -37 535 118 150 146 184 339 93 525 -98 201 -346 318 -555
260z"/>
<path d="M2498 6173 c-9 -2 -20 -12 -23 -22 -6 -20 7 -55 180 -476 l122 -299
309 2 c819 7 1229 13 1235 20 4 4 19 36 34 72 26 62 39 93 86 197 34 75 155
373 175 430 15 43 16 55 6 65 -10 10 -79 14 -270 16 l-257 3 -105 -104 c-165
-162 -281 -219 -439 -213 -63 2 -89 8 -152 37 -147 69 -230 135 -288 227 l-34
53 -281 -2 c-154 -1 -289 -4 -298 -6z"/>
<path d="M2280 6033 c-127 -120 -237 -233 -284 -293 -40 -49 -52 -85 -61 -175
-7 -71 -50 -208 -71 -225 -8 -7 -14 -18 -14 -25 0 -7 -28 -41 -62 -76 -100
-103 -217 -153 -368 -158 -48 -2 -77 -9 -113 -28 -71 -39 -452 -422 -435 -438
2 -3 85 -39 184 -80 98 -42 193 -82 209 -89 17 -7 106 -44 198 -81 l169 -68
161 161 c414 411 807 804 861 860 l59 61 -18 48 c-69 184 -297 703 -309 703
-2 0 -49 -44 -106 -97z"/>
<path d="M4654 6013 c-31 -65 -109 -243 -175 -396 l-119 -278 104 -102 c532
-526 854 -838 941 -910 l29 -25 66 25 c132 50 327 126 378 149 29 13 55 24 58
24 8 0 261 108 272 116 22 15 -236 299 -352 388 l-46 35 -123 -1 c-129 -2
-121 -3 -257 60 -107 49 -209 143 -249 228 -37 78 -59 212 -61 364 0 45 0 46
-172 217 -95 94 -188 184 -206 198 l-32 27 -56 -119z"/>
<path d="M1295 6075 c-145 -31 -256 -117 -320 -250 -101 -210 -49 -451 130
-591 86 -68 168 -97 267 -96 195 1 348 74 433 207 81 127 100 284 50 425 -78
220 -325 354 -560 305z"/>
<path d="M5639 6046 c-2 -2 -29 -6 -59 -9 -98 -10 -150 -34 -242 -109 -158
-130 -201 -375 -102 -575 77 -154 252 -263 423 -263 242 1 480 225 490 462 5
119 -70 287 -169 376 -63 57 -161 97 -264 108 -33 4 -64 8 -67 10 -3 2 -8 2
-10 0z"/>
<path d="M825 4543 c-5 -10 -9 -137 -11 -282 l-3 -264 79 -78 c250 -249 233
-613 -37 -818 l-43 -32 4 -292 c4 -293 8 -337 30 -337 7 0 169 63 362 141 192
77 359 143 371 146 l21 5 -3 437 c-2 240 -4 583 -6 762 l-3 327 -80 32 c-45
18 -121 50 -171 70 -162 68 -460 188 -481 194 -15 5 -24 1 -29 -11z"/>
<path d="M5935 4440 c-159 -65 -301 -123 -315 -128 -14 -6 -55 -23 -93 -37
-37 -15 -70 -31 -73 -36 -11 -19 2 -1509 14 -1521 4 -4 41 -21 82 -38 41 -18
89 -38 105 -45 17 -8 98 -42 180 -76 83 -33 164 -67 180 -74 17 -8 78 -34 138
-58 l107 -45 0 271 0 272 -59 48 c-88 71 -126 113 -156 174 -40 83 -56 145
-59 236 -6 178 39 283 183 424 l93 92 -2 103 c-1 57 -4 157 -5 223 -2 66 -4
168 -4 228 -1 79 -4 107 -13 106 -7 0 -143 -54 -303 -119z"/>
<path d="M408 3985 c-64 -17 -123 -49 -181 -97 -85 -72 -169 -211 -182 -305
-3 -21 -8 -43 -9 -49 -8 -22 17 -120 44 -182 71 -154 194 -258 348 -291 300
-64 563 141 577 450 10 203 -115 382 -320 459 -72 27 -207 34 -277 15z"/>
<path d="M6420 3868 c-128 -19 -268 -120 -322 -229 -47 -98 -64 -253 -39 -361
48 -205 223 -341 454 -353 86 -5 162 17 248 71 163 102 223 219 224 439 0 116
-1 123 -33 187 -85 173 -316 280 -532 246z"/>
<path d="M1325 2570 c-137 -55 -263 -106 -280 -114 -16 -7 -73 -31 -125 -52
-52 -21 -97 -40 -100 -42 -9 -7 372 -372 435 -418 45 -31 74 -45 110 -49 107
-14 138 -22 197 -51 51 -26 152 -104 181 -141 10 -13 25 -29 32 -37 21 -21 82
-135 99 -186 8 -25 18 -69 21 -99 3 -31 15 -67 28 -85 47 -67 212 -241 387
-407 23 -22 78 -54 83 -48 3 2 30 65 62 139 32 74 72 169 90 210 18 41 63 147
100 234 l68 160 -330 325 c-527 521 -780 761 -801 761 -4 0 -119 -45 -257
-100z"/>
<path d="M5235 2478 c-99 -99 -338 -337 -531 -529 l-352 -349 43 -103 c23 -56
95 -228 160 -382 64 -154 122 -290 129 -302 10 -20 23 -10 220 183 116 112
211 212 212 221 2 9 5 55 8 102 8 128 24 198 62 279 41 84 123 172 201 214 61
33 171 65 243 73 137 13 151 17 209 56 74 50 393 366 389 386 -3 14 -19 22
-173 83 -131 52 -434 175 -525 214 -46 20 -91 35 -100 35 -8 -1 -96 -82 -195
-181z"/>
<path d="M1221 1814 c-156 -42 -288 -172 -334 -329 -18 -65 -21 -178 -6 -241
60 -248 328 -413 574 -354 267 65 436 336 359 574 -45 138 -145 271 -237 314
-108 51 -248 65 -356 36z"/>
<path d="M5535 1816 c-204 -49 -358 -246 -357 -454 1 -166 79 -307 222 -403
138 -93 334 -101 499 -21 136 66 243 244 250 417 6 148 -117 348 -257 419
-103 52 -247 69 -357 42z"/>
<path d="M2805 1572 l-40 -3 -42 -102 c-23 -56 -93 -223 -156 -372 -63 -148
-117 -280 -121 -291 -6 -19 -2 -22 26 -27 18 -2 152 -5 298 -6 l265 -1 34 50
c40 60 125 140 186 176 45 26 161 69 213 79 78 15 191 2 267 -30 62 -25 149
-93 240 -184 l90 -92 254 2 c220 1 311 8 311 25 0 2 -9 23 -19 47 -11 23 -68
157 -126 297 -58 140 -123 294 -143 342 l-37 88 -65 0 c-335 3 -1404 4 -1435
2z"/>
<path d="M3429 1013 c-87 -22 -154 -61 -219 -125 -197 -197 -194 -504 6 -687
99 -91 202 -130 335 -126 285 9 488 219 473 491 -11 210 -189 412 -399 453
-73 14 -125 12 -196 -6z"/>
</g>
</svg>
